<?xml version="1.0" encoding="UTF-8"?><!DOCTYPE svg PUBLIC "-//W3C//DTD SVG 1.1//EN" "http://www.w3.org/Graphics/SVG/1.1/DTD/svg11.dtd"><svg xmlns="http://www.w3.org/2000/svg"><symbol id="icon-check_checkmark" viewBox="0 0 16 16"><path fill="currentColor" d="M13.6 2L6 9.7 2.1 5.8 0 7.9 6.1 14 16 4.5z"/></symbol><symbol id="icon-check_close" viewBox="0 0 16 16"><path fill="currentColor" d="M8 0C3.6 0 0 3.6 0 8s3.6 8 8 8 8-3.6 8-8-3.6-8-8-8z"/><path fill="#FFF" d="M11 5.1L7.1 9l-2-2-1 1.1 3.1 3.1 5-4.9z"/></symbol><symbol id="icon-check_open" viewBox="0 0 16 16"><circle fill="#FFF" cx="8" cy="8" r="7"/><path fill="currentColor" d="M8 0C3.6 0 0 3.6 0 8s3.6 8 8 8 8-3.6 8-8-3.6-8-8-8zm0 14.6c-3.6 0-6.6-2.9-6.6-6.6S4.3 1.4 8 1.4c3.6 0 6.5 2.9 6.6 6.6 0 3.6-3 6.6-6.6 6.6z"/></symbol><symbol id="icon-check_open_no_fill" viewBox="0 0 16 16"><path fill="currentColor" d="M8 0C3.6 0 0 3.6 0 8s3.6 8 8 8 8-3.6 8-8-3.6-8-8-8zm0 14.6c-3.6 0-6.6-2.9-6.6-6.6S4.3 1.4 8 1.4c3.6 0 6.5 2.9 6.6 6.6 0 3.6-3 6.6-6.6 6.6z"/></symbol><symbol id="icon-circle_up" viewBox="0 0 512 512"><title>Go to top</title><g fill="currentColor"><path d="M0 256c0 141.385 114.615 256 256 256s256-114.615 256-256S397.385 0 256 0 0 114.615 0 256zm464 0c0 114.875-93.125 208-208 208S48 370.875 48 256 141.125 48 256 48s208 93.125 208 208z"/><path d="M353.372 334.628l45.256-45.256L256 146.745 113.373 289.373l45.254 45.254L256 237.255z"/></g></symbol><symbol id="icon-divider" viewBox="0 0 12 4"><title>Divider</title><path fill="currentColor" d="M1 1a1 1 0 1 1 0 2 1 1 0 0 1 0-2zM6 0a2 2 0 1 1 0 4 2 2 0 0 1 0-4zM11 1a1 1 0 1 1 0 2 1 1 0 0 1 0-2z"/></symbol><symbol id="icon-expand" viewBox="0 0 32.044 32.004"><path fill="currentColor" d="M27.898 10.482l-.005-8.305a2.074 2.074 0 1 1 4.146-.001l.004 8.306a2.074 2.074 0 0 1-4.145 0z"/><path fill="currentColor" d="M21.498 0l8.374.023c1.155.004 2.095.928 2.098 2.063.004 1.136-.929 2.053-2.084 2.049l-8.374-.023c-1.155-.004-2.095-.928-2.099-2.063C19.41.914 20.343-.004 21.498 0z"/><path fill="currentColor" d="M31.392.704a1.99 1.99 0 0 1 0 2.828L21.43 13.43a2.023 2.023 0 0 1-2.847 0 1.99 1.99 0 0 1 0-2.828L28.546.703c.786-.78 2.06-.78 2.846.001zM13.411 18.592a2.013 2.013 0 0 1 0 2.841l-9.918 9.943a1.998 1.998 0 0 1-2.833 0 2.012 2.012 0 0 1 0-2.841l9.918-9.943a1.998 1.998 0 0 1 2.833 0z"/><path fill="currentColor" d="M4.171 21.474l-.038 8.353c-.006 1.152-.936 2.091-2.077 2.097A2.05 2.05 0 0 1 0 29.849l.038-8.353c.006-1.152.936-2.091 2.077-2.097a2.049 2.049 0 0 1 2.056 2.075z"/><path fill="currentColor" d="M10.495 31.983l-8.345.021A2.068 2.068 0 0 1 .069 29.94a2.086 2.086 0 0 1 2.088-2.072l8.346-.02a2.068 2.068 0 0 1 2.081 2.064 2.085 2.085 0 0 1-2.089 2.071z"/></symbol><symbol id="icon-facebook" viewBox="0 0 24 24"><title>Facebook</title><path fill="currentColor" d="M3.75 0h16.5A3.75 3.75 0 0 1 24 3.75v16.5A3.75 3.75 0 0 1 20.25 24H3.75A3.75 3.75 0 0 1 0 20.25V3.75A3.75 3.75 0 0 1 3.75 0z"/><path fill="#FFF" d="M10.473 19.125h2.668v-6.491h2.164l.326-2.544h-2.49V8.337s-.03-.432.177-.721c.177-.248.527-.36 1.217-.36h1.215v-2.28s-1.779-.249-2.994.029c-1.215.278-2.283 1.374-2.283 2.778v2.31H8.25v2.544h2.223v6.488z"/></symbol><symbol id="icon-instagram" viewBox="0 0 24 24"><title>Instagram</title><path fill="currentColor" d="M3.75 0h16.5A3.75 3.75 0 0 1 24 3.75v16.5A3.75 3.75 0 0 1 20.25 24H3.75A3.75 3.75 0 0 1 0 20.25V3.75A3.75 3.75 0 0 1 3.75 0z"/><path fill="#FFF" d="M5.25 7.207c0-1.192.358-1.957 2.216-1.957h9.403c1.231 0 1.881.585 1.881 1.89v9.855c0 1.238-.873 1.755-1.746 1.755H6.862c-1.209 0-1.612-1.17-1.612-1.822V7.207z"/><path fill="currentColor" d="M14.451 7.612c0-.607.269-.877.739-.877h1.41c.403 0 .604.338.604.608v1.553c0 .315-.224.54-.537.54h-1.612c-.403 0-.604-.225-.604-.608V7.612zM15.996 10.988h1.209v5.535c0 .698-.201.675-.672.675H7.6c-.672 0-.806-.428-.806-.81v-5.4h1.209s-.532 1.766.403 3.307c.565.932 1.729 1.958 3.694 1.958 1.971 0 4.792-1.733 3.896-5.265z"/><path fill="currentColor" d="M12.033 9.3A2.694 2.694 0 0 1 14.72 12c0 1.491-1.203 2.7-2.687 2.7A2.693 2.693 0 0 1 9.347 12c0-1.491 1.203-2.7 2.686-2.7z"/></symbol><symbol id="icon-loader" viewBox="0 0 32 32"><g fill="currentColor"><path d="M7.7 22.7c-.8 0-1.5.3-2 .8-.6.6-.8 1.2-.8 2s.3 1.5.8 2c.6.6 1.2.8 2 .8s1.5-.3 2-.8c.6-.6.8-1.2.8-2s-.3-1.5-.8-2c-.6-.5-1.2-.8-2-.8zM7 16.6c0-.9-.3-1.6-.9-2.3-.6-.6-1.4-.9-2.3-.9-.9 0-1.6.3-2.3.9-.5.7-.9 1.5-.9 2.3 0 .9.3 1.6.9 2.3.6.6 1.4.9 2.3.9.9 0 1.6-.3 2.3-.9.6-.6.9-1.4.9-2.3zM25.6 9.3c.4 0 .8-.2 1.1-.5.3-.3.5-.7.5-1.1 0-.4-.2-.8-.5-1.1-.3-.3-.7-.5-1.1-.5-.4 0-.8.2-1.1.5-.3.3-.5.6-.5 1.1s.2.8.5 1.1c.3.3.7.5 1.1.5zM7.7 4.2c-1 0-1.8.3-2.5 1s-1 1.5-1 2.5.3 1.8 1 2.5 1.5 1 2.5 1 1.8-.3 2.5-1 1-1.5 1-2.5-.3-1.8-1-2.5-1.5-1-2.5-1zM30.8 15.3c-.4-.4-.8-.6-1.4-.6-.5 0-1 .2-1.4.6-.4.4-.6.8-.6 1.4 0 .5.2 1 .6 1.4.4.4.8.6 1.4.6.5 0 1-.2 1.4-.6.4-.4.6-.8.6-1.4 0-.6-.2-1-.6-1.4zM25.6 23.4c-.6 0-1.1.2-1.6.7-.4.4-.7 1-.7 1.6 0 .6.2 1.1.7 1.6.4.4 1 .7 1.6.7.6 0 1.1-.2 1.6-.7.4-.4.7-1 .7-1.6 0-.6-.2-1.1-.7-1.6-.5-.5-1-.7-1.6-.7zM16.6 26.9c-.7 0-1.3.3-1.8.8s-.7 1.1-.7 1.8.2 1.3.7 1.8c.5.5 1.1.8 1.8.8s1.3-.3 1.8-.8.8-1.1.8-1.8-.3-1.3-.8-1.8-1.1-.8-1.8-.8zM16.6 0c-1.1 0-2 .4-2.7 1.1-.7.7-1.1 1.7-1.1 2.7 0 1.1.4 2 1.1 2.7.7.7 1.7 1.1 2.7 1.1 1.1 0 2-.4 2.7-1.1.7-.7 1.1-1.7 1.1-2.7 0-1.1-.4-2-1.1-2.7C18.6.4 17.7 0 16.6 0z"/></g></symbol><symbol id="icon-logo" viewBox="0 0 180 145"><title>Nikol Klapková logo</title><path fill="#fba07c" d="M158.707 88.791c-.387-4.855-1.16-9.854-2.36-15.272.333-.157.493-.394.426-.656a73.965 73.965 0 0 0-2.806-8.684c-.443-1.556-.93-3.184-1.445-4.838l-.04-.092c-4.057-19.704-17.42-37.634-37.636-50.49C106.384 3.375 97.794.647 89.316.647c-1.236 0-2.484.059-3.713.175C74.159 1.907 63.8 7.363 56.056 11.994 47.119 17.34 37.794 23.212 30.637 31.03c-3.073 3.357-5.63 7.18-7.8 11.654a58.368 58.368 0 0 0-7.445 17.745 57.514 57.514 0 0 0-1.499 14.866c-1.283 9.455-.999 17.603.87 24.91 2.451 9.584 7.666 18.68 15.082 26.308 11.025 11.337 26.518 17.84 42.507 17.84 2.23 0 4.486-.126 6.65-.372a61.555 61.555 0 0 0 4.148.135c14.957 0 29.99-5.239 42.27-14.714l.364-.165c8.968-4.084 19.085-9.259 26.133-16.672 7.062-7.428 7.395-16.186 6.79-23.773zm-29.722 37.694a71.266 71.266 0 0 0 3.562-3.345c14.215-14.302 21.85-33.356 21.235-52.721 1.335 5.424 2.275 10.504 2.862 15.444.997 8.405 1.16 17.154-4.37 24.21-5.651 7.215-14.485 12.109-23.29 16.412zM15.849 96.98c-.774-3.933-1.108-8.042-1.01-12.483 2.056 11.535 7.276 22.776 15.211 32.695 11.205 14.003 26.095 23.132 42.24 25.977l-.294.001a55.525 55.525 0 0 1-21.012-4.097c-17.73-7.21-31.523-23.733-35.135-42.093zm1.695-8.058a59.346 59.346 0 0 1-1.907-13.956c.505-3.646 1.247-7.56 2.318-12.218-1.028 10.889.775 22.668 5.19 33.245 7.656 18.333 24.194 32.872 44.24 38.892 6.625 1.99 13.617 2.999 20.78 2.999 3.267 0 6.605-.211 9.952-.628-6.136 2.827-12.477 4.662-18.831 5.46-10.713-.765-21.084-4.253-29.989-10.085-15.595-10.212-27.17-26.144-31.753-43.709zm71.559 47.89c-17.963.001-35.676-6.888-48.598-18.899-13.162-12.233-20.832-29.88-21.043-48.415-.104-9.055 1.657-17.69 5.09-24.973 3.693-7.834 9.944-14.641 19.11-20.81 8.114-5.062 17.611-8.578 27.429-10.164a41.86 41.86 0 0 1 2.15-.055c2.894 0 5.823.308 8.706.917 9.579 2.025 19.476 6.32 28.62 12.422 17.803 11.878 29.11 29.377 31.024 48.009 2.448 23.83-16.395 43.172-27.844 52.58a73.019 73.019 0 0 1-12.71 8.403 77.626 77.626 0 0 1-7.51.846c-1.462.093-2.95.139-4.424.14zM105 135.085c11.578-6.833 22.36-17.426 30.52-30.022 6.044-9.327 8.706-19.21 7.912-29.372-.826-10.58-4.761-21.126-11.38-30.496-6.235-8.827-14.981-16.603-25.295-22.49-9.592-5.473-18.755-8.837-27.295-10.03a72.43 72.43 0 0 1 3.406-.08c3.078 0 6.129.203 9.07.604 21.65 2.955 40.56 19.708 51.035 34.4 3.298 4.625 6.08 9.532 8.268 14.584 1.83 11.628.656 23.556-3.394 34.496-4.602 12.43-12.95 23.793-23.51 32.003-6.478 2.9-12.974 5.05-19.337 6.403zm12.917-113.176c-10.618-6.712-21.483-10.2-32.293-10.365a80.472 80.472 0 0 0-11.556.671 40.467 40.467 0 0 0-.946-.01c-8.283 0-17.007 2.657-25.928 7.9-3.837 2.254-7.148 4.509-10.117 6.89a64.058 64.058 0 0 0-4.133 3.53c6.857-7.187 15.64-12.713 24.089-17.767 8.542-5.113 19.912-10.98 32.108-10.98.842 0 1.692.028 2.524.083 9.512.632 19.268 5.095 29.824 13.641 9.944 8.05 17.101 15.978 21.882 24.234 2.773 4.79 4.915 9.974 6.384 15.442-7.19-13.154-18.15-24.617-31.838-33.27zM86.86 142.588c5.192-1.278 10.362-3.28 15.368-5.948 6.06-1.058 12.185-2.789 18.241-5.155a68.241 68.241 0 0 1-13.182 6.95 63.805 63.805 0 0 1-21.532 4.415c.37-.084.739-.171 1.105-.261z"/><path d="M17.214 71.562c.327-1.234.944-2.344 1.85-3.331l3.332-4.072c.164-.165.266-.329.309-.494.04-.164.102-.328.185-.493.081-.248.534-.905 1.357-1.975.822-1.069 1.707-2.241 2.653-3.517a942.105 942.105 0 0 1 2.715-3.64c.864-1.151 1.42-1.932 1.666-2.345.08-.164.266-.432.555-.802.287-.37.617-.76.987-1.172.37-.411.741-.803 1.111-1.173l.801-.801 2.47-2.222 2.837-1.974c.329-.247.864-.513 1.605-.803.74-.287 1.644-.493 2.714-.617 1.069-.123 2.283-.04 3.64.247 1.358.29 2.777.926 4.258 1.913 1.89 1.728 3.146 3.6 3.764 5.614.616 2.017 1.006 3.56 1.171 4.628.165.823.205 1.604.124 2.345-.082.74-.206 1.523-.37 2.344l-.494 2.221c-.33 1.154-.7 2.326-1.11 3.518a385.775 385.775 0 0 1-1.234 3.516c-.413 1.234-.824 2.468-1.234 3.702a61.26 61.26 0 0 0-1.11 3.702c-.167.988-.371 1.975-.618 2.962a37.472 37.472 0 0 0-.616 2.962 37.51 37.51 0 0 1-.31 1.603c-.122.577-.057 1.454.094 3.012.048.507.296 1.348.462 1.925.081.41.41.616.987.616.494-.246 1.354-.651 1.601-.98l2.348-2.228a22.23 22.23 0 0 0 1.974-1.974 26.357 26.357 0 0 0 1.728-2.222c.658-.904 1.296-1.808 1.912-2.714a31.867 31.867 0 0 0 1.666-2.715l3.332-6.17c.247-.41.97-1.792 1.635-2.56 1.226-1.417.845.928 1.01.516.164-.411 1.087-.68 1.457-.516.37.165.15 1.407-.014 1.818-.247.493-.393.996-.845 2.147-.452 1.153-2.44-.15-3.058 1.125a107.245 107.245 0 0 1-1.913 3.763c-.659 1.234-1.233 2.221-1.727 2.962l-.74.864c-.413.659-1.009 1.461-1.79 2.406a75.88 75.88 0 0 1-2.529 2.9 62.459 62.459 0 0 1-2.777 2.838 61.35 61.35 0 0 1-2.283 2.097c-.493.411-1.008.658-1.542.74-.536.082-1.092.124-1.666.124-1.153-.165-2.889-.964-3.71-1.786-.246-.166-1.515-1.875-1.843-2.532-.33-.66-.617-1.377-.864-2.16-.246-.781-.33-1.623-.246-2.53.08-1.398.204-2.755.37-4.072.163-1.315.45-2.591.864-3.825.246-.904.471-1.747.678-2.53.205-.78.472-1.623.803-2.53.246-1.068.533-2.015.863-2.838l2.222-6.293c.246-.575.45-1.13.616-1.666.164-.534.328-1.13.494-1.79.163-.327.287-.616.37-.863.081-.247.205-.574.37-.987.081-.41.164-.883.247-1.42.081-.533.123-1.089.123-1.665.164-.987.288-1.994.37-3.023.082-1.028-.165-2.036-.74-3.024-.247-.574-.679-.987-1.295-1.234a95.743 95.743 0 0 0-1.913-.74c-1.07-.574-2.264-.636-3.578-.185A15.504 15.504 0 0 0 39.98 45.4c-1.194.824-2.202 1.626-3.023 2.407-.824.783-1.317 1.255-1.481 1.419-.166.165-.453.536-.864 1.11-.413.577-.864 1.215-1.358 1.913-.493.7-.967 1.357-1.419 1.975-.452.616-.802 1.048-1.049 1.295-.165.167-.432.494-.802.988-.37.493-.783 1.048-1.234 1.665a93.036 93.036 0 0 1-1.296 1.728c-.412.536-.7.925-.863 1.172a28.25 28.25 0 0 0-1.357 1.975 27.96 27.96 0 0 1-1.358 1.974 28.825 28.825 0 0 0-1.666 2.098c-.536.74-1.09 1.44-1.666 2.098-.412.412-.74.885-.987 1.419a11.367 11.367 0 0 1-.864 1.542c-.412.987-.863 1.77-1.357 2.344-.412.66-.844 1.296-1.295 1.913a13.116 13.116 0 0 0-1.173 1.913c-.247.33-.555.823-.925 1.48-.371.66-.741 1.358-1.111 2.099-.37.74-.721 1.419-1.05 2.036-.329.617-.535 1.09-.616 1.419-.33.904-.66 1.808-.988 2.714-.33.905-.576 1.892-.74 2.962 0 .08-.021.143-.062.185-.042.04-.062.143-.062.309a9.73 9.73 0 0 0-.802 2.9 72.832 72.832 0 0 0-.308 3.146c0 .658-.33 1.11-.988 1.357a3.22 3.22 0 0 1-1.912.617H3.27c-.33 0-.638-.021-.925-.061a3.073 3.073 0 0 1-.926-.309C.76 99.12.39 98.791.308 98.216c-.41-1.234-.41-2.51 0-3.826.164-.659.349-1.295.555-1.912.204-.617.349-1.255.432-1.912l.37-.741v-.247c0-.083.04-.123.124-.123.164-.988.37-1.934.616-2.838a34.58 34.58 0 0 1 .864-2.715l1.728-5.183c.41-1.398.802-2.755 1.172-4.072.37-1.315.76-2.673 1.172-4.072.165-.41.309-.822.432-1.234.124-.411.267-.822.432-1.234.328-1.234.658-2.468.988-3.702a91.69 91.69 0 0 1 1.11-3.825 53.648 53.648 0 0 1 2.222-6.17c.08-.328.142-.597.184-.803.041-.204.062-.431.062-.678l.864-2.592a79.98 79.98 0 0 0 1.11-3.331c.329-1.068.699-2.18 1.11-3.332.248-.494.433-1.192.556-2.098.124-.904.143-1.768.062-2.591-.083-.822-.29-1.481-.617-1.975-.33-.494-.864-.574-1.603-.247a3.06 3.06 0 0 1-1.05.309 1.51 1.51 0 0 0-.925.432c-.413.165-.886.431-1.42.802-.535.37-.844.597-.925.679-.493.166-.885.514-1.172 1.048a34.798 34.798 0 0 1-.802 1.42c-.166.247-.33.474-.494.678-.165.207-.33.432-.493.68-.247.412-.516.431-.802.06-.29-.37-.351-.595-.185-.678.328-.74.698-1.46 1.11-2.16a6.057 6.057 0 0 1 1.605-1.79c0-.08.286-.308.863-.678.575-.37 1.253-.76 2.036-1.172.78-.41 1.645-.74 2.592-.987.944-.247 1.829-.247 2.652 0 1.07.246 1.975.947 2.715 2.097.658.74 1.213 1.586 1.666 2.53.451.947.678 2.243.678 3.887-.166.74-.267 1.462-.307 2.16-.043.7-.145 1.378-.309 2.036-.166.66-.289 1.296-.37 1.913a17.599 17.599 0 0 1-.37 1.912c-.167.74-.352 1.44-.556 2.098-.206.66-.391 1.317-.555 1.974l-2.345 8.392-1.727 5.923-2.222 7.527 1.975-2.961c.494-.74.945-1.439 1.357-2.099.41-.656.658-1.067.74-1.233z"/><path d="M68.48 66.933c1.562.165 2.838.659 3.826 1.48a4.205 4.205 0 0 1 0 2.469c0 .412-.021.783-.062 1.11-.042.33-.104.66-.185.987a18.025 18.025 0 0 1-1.11 3.579 59.911 59.911 0 0 0-1.358 3.455c-.576 1.317-.946 2.55-1.11 3.702l-.617 1.85c-.083.66-.272 1.344-.354 1.878-.083.536-.178.987-.264 1.578-.072.499.396.702.494.764.238.15.451.1.864.1a8.795 8.795 0 0 0 2.221-.74c.74-.411 1.521-.843 2.344-1.296a12.523 12.523 0 0 0 2.221-1.543c.329-.164 1.316-1.068 1.482-1.234 1.151-1.068 3.05-2.8 4.181-3.95 2.128-2.162 4.42-4.368 5.375-5.446 4.349-4.915 7.162-7.09 7.697-8.12.534-1.027.926-1.788 1.173-2.282.328-.575.617-.74.864-.493.246.246.287.536.123.864-.247.493-.617 1.254-1.11 2.283-.494 1.029-4.385 4.858-7.467 8.208-.914.992-3.625 3.709-5.205 5.445l-4.456 4.188c-.66.66-1.505 1.443-2.163 2.018-.66.576-2.715 1.727-2.715 1.727a10.83 10.83 0 0 1-3.578 1.605c-.33.083-.638.123-.925.123h-.802c-.907-.163-1.645-.39-2.222-.678-.574-.288-1.191-.72-1.85-1.296-1.152-.822-1.728-1.932-1.728-3.332a7.544 7.544 0 0 1 .37-3.579c.247-.41.413-.842.494-1.295.082-.452.206-.926.37-1.42l2.097-5.305c.33-.905.66-1.83.988-2.777.328-.945.657-1.87.987-2.776.164-.329.308-.658.432-.988.123-.328.349-.617.678-.864zm4.451-7.045c.906-.013 1.183.177 1.843.752.08 0 .204.123.37.37.575.906.451 1.523-.37 1.85-.577.167-1.03.167-1.358 0a2.572 2.572 0 0 0-.802-.555c-.289-.123-.632-.626-.668-.921-.131-1.068.659-1.492.985-1.496z"/><path d="M99.375 81.226c.164.166.473.7.925 1.604.452.906.988 1.81 1.605 2.715.617.906 1.234 1.666 1.851 2.283s1.172.72 1.666.308c.575-.574 1.151-1.11 1.727-1.604.575-.493 2.118-2.098 2.406-2.344.288-.247 4.381-4.32 4.381-4.32.247-.327 2.734-3.516 3.27-4.38a42.666 42.666 0 0 1 1.79-2.653c.247-.41.534-.556.864-.432.327.123.41.432.246.925-.166.247-.33.536-.493.864a8.47 8.47 0 0 1-.494.864c-.494.576-1.262 1.974-1.756 2.63-.412.66-1.926 2.306-2.378 2.8-.453.493-1.922 2.05-2.545 2.775-.762.887-2.001 2.12-2.822 2.778-.33.33-.762.782-1.296 1.357a36.956 36.956 0 0 1-1.79 1.79 12.996 12.996 0 0 1-1.974 1.542c-.66.412-1.277.576-1.85.493-.908-.164-1.63-.623-2.346-1.172-1.912-1.466-3.168-3.844-3.332-4.257l-1.357-2.468c-.412-.411-.66-.698-.74-.864-.247.246-.453.947-.617 2.097-.166 1.154-.247 1.852-.247 2.098-.083.66-.247 1.111-.493 1.358-.247.247-.7.453-1.358.617-1.234.083-2.221-.247-2.962-.987a7.616 7.616 0 0 0-.925-.802 15.888 15.888 0 0 0-1.05-.679c-.41-.328-.533-.821-.37-1.481.084-.74.186-1.623.31-2.653a45.98 45.98 0 0 1 .493-3.147c.206-1.068.391-2.097.555-3.085.165-.987.29-1.85.37-2.59l.617-2.469a37.15 37.15 0 0 0 .803-3.394c.204-1.11.432-2.24.678-3.393l1.234-4.69c.411-.904.97-2.81 1.975-5.429 0 0 1.808-3.825 2.22-4.565l2.099-3.949c.163-.328.348-.658.555-.987.204-.328.389-.617.555-.864.41-.987.904-1.913 1.48-2.776a35.302 35.302 0 0 1 1.852-2.53 17.32 17.32 0 0 1 1.604-1.851 38.037 38.037 0 0 0 1.728-1.851 12.795 12.795 0 0 1 2.53-2.16 66.074 66.074 0 0 0 2.775-1.912c1.235-.987 2.797-1.358 4.69-1.11.328.082.636.165.925.246.288.083.637.166 1.05.247.987.246 1.89.823 2.714 1.727.41.577.699 1.133.864 1.666.164.536.287 1.092.37 1.666.164.906.204 1.75.124 2.53-.084.783-.166 1.584-.247 2.406-.247 2.057-.783 3.908-1.604 5.553-.084.166-.29.576-.617 1.234-.33.66-.722 1.4-1.172 2.221a29.403 29.403 0 0 1-1.481 2.407c-.536.782-1.05 1.419-1.543 1.912a16.584 16.584 0 0 0-2.221 1.85l-1.974 1.975c-.494.413-.968.845-1.42 1.296-.452.453-.967.885-1.542 1.296-.166.166-.309.33-.432.493-.124.166-.309.29-.555.37a72.5 72.5 0 0 1-1.975 1.666 19.27 19.27 0 0 1-2.22 1.543 17.8 17.8 0 0 1-2.592 1.728c-.907.493-1.628 1.203-2.468 1.727-.494.308-.84.52-.84.52s-.284 2.204-.696 3.583c.117-.393 1.02-.771 1.967-1.265a20.088 20.088 0 0 1 3.147-1.296c1.15-.37 2.364-.574 3.64-.616 1.276-.04 2.407.267 3.394.925.41.33.966.7 1.666 1.11.698.414.926 1.07.68 1.975-.248.66-.722 1.255-1.42 1.79-.7.535-1.481 1.048-2.345 1.542-.864.493-1.728.968-2.59 1.42-.865.452-1.586.924-2.16 1.418l-2.222 2.098c-.166.083-.308.227-.432.432a2.856 2.856 0 0 1-.432.555zm-4.319-2.591a309.99 309.99 0 0 1 2.592-2.098 70.457 70.457 0 0 1 2.591-1.974c.657-.494 1.648-1.061 2.962-1.728 3.807-1.932 3.372-2.796 3.208-2.962-.494-.41-1.255-.575-2.283-.493-1.03.083-2.079.35-3.147.802a14.66 14.66 0 0 0-3.085 1.79c-.987.74-1.686 1.523-2.097 2.344 0 .166-.536 2.387-.618 2.715-.082.33-.206 1.523-.123 1.604zm3.845-13.717a32.16 32.16 0 0 0 1.432-.999c.652-.49 1.18-.811 1.757-1.265.574-.45 1.15-.925 1.727-1.419l3.95-3.085 1.357-1.233 4.813-4.196.493-.247c1.398-1.644 2.508-3.332 3.332-5.06a29.659 29.659 0 0 0 1.975-5.552c.163-.41.246-.822.246-1.234 0-.41.081-.821.247-1.234.164-.74.246-1.48.246-2.221v-2.345c0-.327-.02-.636-.061-.925a4.882 4.882 0 0 0-.309-1.05c-.412-.656-.801-1.027-1.172-1.11-.37-.08-.885.083-1.542.494a2.724 2.724 0 0 0-1.05.74c-.288.33-.638.66-1.048.988l-3.331 3.208c-.66.74-1.296 1.462-1.913 2.16-.617.699-1.215 1.418-1.79 2.159a51.365 51.365 0 0 0-2.53 4.072 67.107 67.107 0 0 0-2.159 4.196 46.58 46.58 0 0 0-1.357 2.961 22.436 22.436 0 0 1-1.605 3.085l-.493 1.48a3.834 3.834 0 0 0-.494 1.358 25.131 25.131 0 0 0-1.172 3.332c-.29 1.07-.598 2.683-.926 3.835 0 0 1.157-.745 1.377-.893z"/><path d="M141.041 77.241c-.412.987-.801 1.934-1.253 3.045a84.619 84.619 0 0 1-1.296 3.023c-.165.413-.617 1.194-1.357 2.345-.74 1.152-1.4 1.974-1.975 2.468-.33.33-.823.678-1.48 1.049-.66.37-1.358.7-2.098.987-.74.29-1.46.536-2.159.74-.7.206-1.255.309-1.667.309a5.42 5.42 0 0 1-2.159-.185c-.7-.205-1.378-.432-2.036-.68a3.963 3.963 0 0 1-1.172-.74c-.37-.327-.722-.657-1.05-.987-.576-.657-1.11-1.274-1.603-1.85-.493-.575-.947-1.275-1.357-2.098-.575-1.152-.864-2.222-.864-3.209a11.923 11.923 0 0 1 .123-3.825c.247-1.234.576-2.426.987-3.578a4.92 4.92 0 0 0 .432-.803c.124-.287.143-.636.062-1.049-1.315-1.151-2.098-2.425-2.345-3.825a6.721 6.721 0 0 1 .494-4.01c.576-1.275 1.438-2.447 2.59-3.517 1.152-1.069 2.427-1.809 3.826-2.221 1.645-.575 3.27-.843 4.875-.802 1.604.042 2.733.185 3.393.432 1.727.823 3.126 1.81 4.196 2.961 1.068 1.153 1.932 2.304 2.591 3.455.657 1.153 1.151 2.243 1.48 3.27a97.77 97.77 0 0 1 .741 2.407c.247.906.39 1.954.432 3.146.04 1.194.02 1.955-.062 2.283.411.166 1.234.124 2.468-.124a41.063 41.063 0 0 0 3.887-.987 36.223 36.223 0 0 0 3.765-1.357c1.15-.494 1.85-.945 2.097-1.357l.74-.494c.247-.164.575-.204.987-.123.082.083.082.247 0 .493a1.543 1.543 0 0 1-.37.617 39.618 39.618 0 0 1-2.591 1.666 22.545 22.545 0 0 1-2.838 1.42c-1.153.412-2.521.86-4.134 1.233-1.375.318-2.51.408-4.3.472zm-.944-1.336c.328-1.234.247-2.857-.247-4.874a22.085 22.085 0 0 0-2.344-5.8c-1.07-1.85-2.345-3.413-3.826-4.689-1.48-1.274-3.085-1.83-4.813-1.666a50.816 50.816 0 0 0-3.517.555c-1.029.207-1.995.515-2.899.926-1.234.74-2.221 1.564-2.962 2.468-.74.906-1.234 1.851-1.481 2.838-.246.987-.225 1.934.062 2.838.29.907.802 1.688 1.543 2.345 0-.081.142-.328.431-.74.288-.411.596-.843.926-1.296.328-.451.636-.883.925-1.296.288-.41.82-.967 1.19-1.09.37-.123 1.915-.267 2.327-.02h.37c.494-.082.883.02 1.173.308.287.29.635.598 1.049.925.453.455.6.96.44 1.517-.042.149-.317.89-.564 1.26-.247.37-.536.783-.863 1.234-.33.453-.618.885-.864 1.296-.248.412-.37.66-.37.74.164.166.41.33.74.494.574.166 1.11.308 1.604.432.493.123 2.776.493 3.393.616.617.124 4.051.392 5.121.555 1.069.166 2.222.207 3.456.124zM126.893 89.48c1.81 0 3.351-.266 4.627-.802 1.275-.534 2.324-1.173 3.147-1.913.822-.74 1.46-1.5 1.913-2.282.451-.781.802-1.42 1.049-1.913.328-.657.636-1.42.926-2.283.286-.864.555-1.623.802-2.283.08-.164.163-.308.246-.432.08-.123-.042-.44.124-.431-.707-.037-1.234.144-2.469-.062-1.234-.205-2.263-.31-3.085-.31-.659 0-1.461-.08-2.406-.246-.946-.164-1.872-.327-2.776-.493a27.459 27.459 0 0 1-2.468-.555c-.74-.205-1.154-.309-1.234-.309-.33.493-.598 1.11-.803 1.851-.206.74-.39 1.4-.555 1.975-.413 1.233-.616 2.386-.616 3.454 0 .248.04.721.123 1.42.08.7.266 1.44.555 2.22a9.609 9.609 0 0 0 1.111 2.16c.451.66 1.049 1.07 1.79 1.234z"/><path d="M152.972 95.488c.41.166.945.166 1.604 0 .658-.327 1.191-.596 1.605-.802.41-.204.904-.555 1.48-1.049.412-.41.821-.802 1.234-1.172.41-.37 2.18-2.036 2.345-2.283a47.13 47.13 0 0 0 1.542-1.665c.699-.781 1.377-1.562 2.036-2.345.658-.781 1.254-1.5 1.79-2.16.534-.657 1.048-1.208 1.295-1.621.246-.41 1.112-1.668 1.358-2.08.163-.329.472-.884.926-1.666.45-.781.883-1.42 1.295-1.913.411-.41.781-.535 1.11-.37.329.166.37.493.125.987-.414.66-.864 1.462-1.358 2.406-.493.947-.741 1.461-.741 1.542-.999 1.581-1.643 2.696-3.128 4.429-1.29 1.506-3.412 3.758-3.659 4.086a16.9 16.9 0 0 1-.863 1.049c-.33.37-.638.721-.926 1.049-.29.33-1.872 1.604-2.036 1.85-.247.248-.494.475-.74.68-.247.206-.494.431-.74.678a25.04 25.04 0 0 1-2.099 1.172c-.74.37-1.563.639-2.468.802-.493 0-.864-.04-1.11-.123-1.647-.247-3.168-.944-4.565-2.098l-2.099-1.727c-.41-.494-.698-1.007-.864-1.543a10.619 10.619 0 0 1-.37-1.789 22.939 22.939 0 0 1-.185-3.764c.043-1.274.186-2.57.432-3.887.33-1.151.638-2.345.926-3.578a33.44 33.44 0 0 1 1.048-3.58l1.112-3.331 1.11-3.949a73.312 73.312 0 0 1 1.11-3.763c.41-1.275.822-2.53 1.234-3.764l.741-1.974c.246-.822.534-1.604.864-2.345.327-.74.616-1.481.864-2.22.41-1.152.882-2.303 1.42-3.456.533-1.15 1.047-2.302 1.541-3.456.247-.574.534-1.129.863-1.665.328-.534.658-1.049.988-1.543.247-.327.473-.657.678-.987.205-.328.39-.658.556-.987.247-.328.494-.698.74-1.11.248-.411.494-.741.74-.988a20.2 20.2 0 0 1 2.037-2.406c.698-.698 2.077-2.16 5.306-3.949.955-.53 2.117-.636 3.27-.802.328-.081 1.685.207 2.098.37 1.315.413 2.345.926 3.084 1.543.741.617 1.296 1.296 1.667 2.036.37.74.596 1.523.678 2.345.082.823.295 2.457-.123 5.676-.147 1.137-.823 2.18-1.234 3.331a72.406 72.406 0 0 1-1.789 3.579 31.827 31.827 0 0 1-2.16 3.456c-.165.33-.289.536-.37.616-.493 1.07-3.25 4.485-4.072 5.307l-.74.864c-.083.165-.536.638-1.357 1.418a108.75 108.75 0 0 0-1.851 1.79l-4.443 4.565c-1.067.868-1.648 1.308-2.782 2.222-.797.642-1.867 1.276-2.77 1.85-.33.084-.578.413-.741.988-.412 1.234-.824 2.468-1.234 3.701a27.48 27.48 0 0 0-.987 3.949c-.166.906-.351 1.81-.556 2.715-.206.906-.39 1.851-.555 2.838a16.175 16.175 0 0 0-.247 2.9c0 1.03.082 2.036.247 3.023.164.413.287.803.37 1.173.08.37.246.678.493.925zm23.693-60.342c-.577-.41-1.194-.308-1.851.309a41.347 41.347 0 0 1-1.728 1.543 25.227 25.227 0 0 0-2.962 2.961c-.905 1.07-1.81 2.18-2.714 3.332a12.223 12.223 0 0 0-1.851 2.715 31.802 31.802 0 0 1-1.604 2.838 24.723 24.723 0 0 0-1.666 3.517 93.818 93.818 0 0 0-1.296 3.64l-3.209 9.378c-.246.823-.493 1.626-.74 2.406-.247.783-1.08 3.64-1.08 3.64s1.545-.887 2.122-1.3c.575-.41 1.369-.99 1.997-1.415 1.468-.99 1.965-1.745 2.953-2.652.987-.904 7.506-7.982 8.275-9.355.37-.66 2.516-3.375 3.009-4.28a34.38 34.38 0 0 0 2.839-5.43l.987-2.962c.246-.74.37-1.604.37-2.591v-1.05c0-.533-.042-1.129-.124-1.788a7.166 7.166 0 0 0-.555-1.975c-.29-.658-.678-1.15-1.172-1.48zM57.887 112.745h-1.56a197.401 197.401 0 0 0-1.228-3.014c-.417-.998-.826-2.008-1.229-3.031l-1.459 1.098-1.048 4.947h-1.425l2.591-12.259h1.426l-1.267 5.954 5.87-5.954h1.752l-5.358 5.341 2.935 6.918zM60.67 112.745h-1.408l2.784-13.048h1.409l-2.784 13.048zM68.503 103.388c.514 0 .972.138 1.375.415.403.276.716.674.94 1.194h.092l.561-1.442h1.066l-1.955 9.19h-1.115l.218-1.752h-.067c-1 1.28-2.054 1.92-3.161 1.92-.777 0-1.387-.277-1.828-.83-.442-.554-.662-1.311-.662-2.273 0-1.162.198-2.241.595-3.236.397-.995.944-1.775 1.643-2.34.7-.564 1.465-.846 2.298-.846zm-1.594 8.36c.543 0 1.082-.259 1.619-.776.537-.517.973-1.19 1.308-2.021.335-.83.503-1.661.503-2.495 0-.575-.156-1.034-.47-1.375-.312-.34-.723-.511-1.232-.511-.581 0-1.122.24-1.622.72-.5.482-.893 1.133-1.179 1.955s-.427 1.688-.427 2.599c0 .637.131 1.114.394 1.43.262.316.631.473 1.106.473zM77.417 112.913c-.543 0-1.018-.14-1.426-.419-.408-.28-.724-.67-.947-1.174h-.085l-.033.318c-.017.14-.046.336-.088.587-.042.252-.362 1.8-.96 4.646h-1.392l2.818-13.316h1.165l-.218 1.753h.067c1-1.27 2.04-1.904 3.12-1.904.765 0 1.369.273 1.81.817.442.546.663 1.31.663 2.294 0 1.185-.193 2.272-.578 3.262-.386.99-.92 1.76-1.602 2.31a3.584 3.584 0 0 1-2.314.826zm1.56-8.343c-.538 0-1.084.266-1.64.796-.557.531-.998 1.2-1.325 2.004a6.517 6.517 0 0 0-.49 2.474c0 .615.155 1.086.465 1.413.31.327.759.49 1.346.49.553 0 1.069-.226 1.547-.679.478-.452.862-1.097 1.153-1.932.29-.836.436-1.724.436-2.663 0-1.269-.498-1.903-1.493-1.903zM85.525 108.058l4.411-4.503h1.686l-3.933 3.916 2.473 5.274h-1.568l-1.97-4.393-1.275 1.031-.687 3.362h-1.426l2.767-13.048h1.426l-1.082 5.049c-.318 1.487-.604 2.591-.855 3.312h.033zM96.527 103.438c1.062 0 1.9.314 2.516.943.614.63.922 1.494.922 2.595a7.439 7.439 0 0 1-.604 2.977c-.402.934-.947 1.655-1.635 2.163a3.82 3.82 0 0 1-2.331.764c-1.074 0-1.915-.316-2.524-.948-.61-.632-.914-1.495-.914-2.59 0-1.063.204-2.062.612-2.999.408-.936.959-1.654 1.652-2.155.693-.5 1.462-.75 2.306-.75zm1.979 3.345c0-.643-.175-1.164-.524-1.564-.35-.399-.823-.6-1.422-.6-.609 0-1.155.208-1.64.622-.482.413-.857.988-1.123 1.723-.265.735-.398 1.553-.398 2.452 0 .733.177 1.3.532 1.698.356.4.865.6 1.531.6.581 0 1.104-.204 1.568-.612.464-.408.826-.988 1.086-1.74.26-.752.39-1.611.39-2.579zM102.64 112.745l-1.048-9.19H103l.537 5.14c.134 1.443.201 2.454.201 3.036h.05c.71-1.538 1.21-2.575 1.501-3.111l2.726-5.065h1.492l-4.955 9.19h-1.912zM114.06 103.388c.515 0 .973.138 1.376.415.402.276.715.674.94 1.194h.091l.562-1.442h1.065l-1.954 9.19h-1.115l.218-1.752h-.067c-1 1.28-2.054 1.92-3.161 1.92-.777 0-1.387-.277-1.828-.83-.442-.554-.663-1.311-.663-2.273 0-1.162.199-2.241.596-3.236.396-.995.944-1.775 1.643-2.34.699-.564 1.464-.846 2.298-.846zm-1.593 8.36c.543 0 1.082-.259 1.619-.776.536-.517.973-1.19 1.308-2.021.335-.83.503-1.661.503-2.495 0-.575-.157-1.034-.47-1.375-.313-.34-.724-.511-1.232-.511-.581 0-1.122.24-1.622.72-.5.482-.894 1.133-1.179 1.955a7.872 7.872 0 0 0-.428 2.599c0 .637.132 1.114.395 1.43.262.316.631.473 1.106.473zm1.267-9.635c.313-.336.664-.76 1.052-1.27.389-.512.686-.93.893-1.255h1.593v.177c-.212.274-.604.696-1.173 1.266-.57.57-1.066 1.006-1.485 1.308h-.88v-.226z"/></symbol><symbol id="icon-logo_mobile" viewBox="0 0 60 24"><path fill="#fba07c" d="M5.738 14.392c.109-.412.315-.782.617-1.111l1.11-1.357a.369.369 0 0 0 .103-.165.778.778 0 0 1 .062-.164c.027-.083.178-.302.452-.659.274-.356.57-.747.885-1.172.315-.425.617-.829.905-1.213.288-.384.473-.644.555-.782.027-.055.089-.144.185-.267.096-.124.206-.253.33-.391.123-.137.246-.267.37-.39l.267-.268.823-.74.946-.659c.109-.082.288-.17.534-.267a3.7 3.7 0 0 1 .905-.206 3.801 3.801 0 0 1 1.214.082c.452.097.925.309 1.419.638.63.576 1.049 1.2 1.255 1.871.205.673.335 1.187.39 1.543.055.274.068.535.041.781a9.238 9.238 0 0 1-.123.782l-.165.74c-.11.385-.233.775-.37 1.173-.137.397-.274.788-.411 1.172-.138.411-.275.822-.411 1.234-.138.411-.261.823-.37 1.234-.056.329-.124.658-.206.987-.083.33-.151.658-.206.987-.028.165-.062.343-.103.535-.04.192-.019.485.031 1.004.016.169.099.45.154.641.027.137.137.206.33.206.164-.082.45-.217.533-.327l.783-.743a7.396 7.396 0 0 0 1.234-1.398c.219-.302.432-.603.637-.905.206-.302.391-.603.555-.905l1.111-2.057c.082-.137.323-.597.545-.853.408-.472.281.31.337.172.054-.137.362-.227.485-.172.124.055.05.469-.004.606-.083.164-.131.332-.282.716-.15.384-.814-.05-1.02.375-.205.425-.418.843-.637 1.254-.22.411-.411.74-.576.987l-.246.288c-.138.22-.337.487-.597.802-.26.316-.542.638-.843.967-.302.329-.61.644-.926.946-.315.301-.57.535-.76.699-.165.137-.337.22-.515.247a3.7 3.7 0 0 1-.555.041c-.385-.055-.963-.322-1.237-.595-.082-.056-.505-.625-.614-.845a4.897 4.897 0 0 1-.288-.72c-.082-.26-.11-.54-.082-.843.027-.466.068-.918.123-1.357.054-.438.15-.864.288-1.275.082-.302.157-.583.226-.843.068-.26.158-.542.268-.844.082-.356.178-.671.287-.946l.741-2.097c.082-.192.15-.377.205-.556.055-.178.11-.376.165-.596.054-.11.096-.206.123-.288.027-.082.069-.192.124-.33.027-.136.054-.294.082-.472a3.7 3.7 0 0 0 .041-.555c.055-.33.096-.665.123-1.008a1.702 1.702 0 0 0-.246-1.008.756.756 0 0 0-.432-.411 31.997 31.997 0 0 0-.638-.247c-.357-.191-.754-.212-1.193-.062a5.17 5.17 0 0 0-1.254.638 8.346 8.346 0 0 0-1.008.802c-.274.26-.439.418-.494.473a3.63 3.63 0 0 0-.288.37l-.452.638c-.165.233-.323.452-.473.658-.15.205-.267.35-.35.432a3.578 3.578 0 0 0-.267.329c-.123.165-.26.35-.411.556-.151.205-.295.397-.432.576a7.83 7.83 0 0 0-.288.39c-.165.22-.316.44-.452.658-.138.22-.288.44-.453.658-.192.22-.377.453-.555.7-.179.247-.364.48-.556.7a1.632 1.632 0 0 0-.329.472c-.082.179-.178.35-.288.514-.137.33-.287.59-.452.782-.137.22-.281.432-.432.637a4.374 4.374 0 0 0-.39.638c-.083.11-.186.274-.31.494-.123.22-.246.452-.37.699-.123.247-.24.473-.35.679-.109.205-.178.363-.205.473l-.329.904a5.15 5.15 0 0 0-.247.988c0 .027-.007.047-.02.061-.014.014-.02.048-.02.103a3.241 3.241 0 0 0-.268.967c-.041.342-.076.692-.103 1.049 0 .219-.11.37-.33.452a1.073 1.073 0 0 1-.637.206H1.09c-.11 0-.213-.007-.309-.02a1.022 1.022 0 0 1-.308-.103c-.22-.028-.343-.138-.37-.33a2.035 2.035 0 0 1 0-1.275c.054-.22.116-.431.185-.637.068-.206.116-.418.144-.638l.123-.246v-.083c0-.027.014-.04.041-.04.055-.33.124-.645.206-.947.082-.301.178-.603.288-.905l.576-1.727c.137-.466.267-.919.39-1.358.124-.438.254-.89.391-1.357.055-.137.103-.274.144-.411.042-.137.089-.274.144-.412l.33-1.234c.109-.411.232-.836.37-1.275.219-.74.466-1.425.74-2.056.027-.11.047-.2.061-.268.014-.068.02-.144.02-.227l.289-.863c.137-.384.26-.754.37-1.11.11-.357.233-.727.37-1.111.083-.165.144-.398.185-.7.042-.301.048-.59.021-.863-.028-.274-.096-.494-.206-.659-.11-.164-.288-.191-.534-.082a1.02 1.02 0 0 1-.35.103.502.502 0 0 0-.308.144 2.471 2.471 0 0 0-.473.267 3.512 3.512 0 0 0-.31.227.692.692 0 0 0-.39.349c-.096.179-.185.336-.267.473-.055.082-.11.158-.164.226a3.06 3.06 0 0 0-.165.227c-.082.137-.172.144-.267.02-.097-.123-.117-.198-.062-.226.11-.247.232-.486.37-.72a2.02 2.02 0 0 1 .535-.596c0-.027.095-.103.288-.227a9.12 9.12 0 0 1 .678-.39c.26-.137.548-.247.864-.33.315-.082.61-.082.884 0 .357.083.659.316.905.7.22.247.404.528.556.843.15.316.226.748.226 1.296-.056.247-.09.487-.103.72a3.75 3.75 0 0 1-.103.678c-.055.22-.096.432-.123.638a5.856 5.856 0 0 1-.124.637c-.055.247-.117.48-.185.7-.068.22-.13.439-.185.658l-.781 2.797-.576 1.974-.74 2.51.658-.988c.164-.247.315-.48.452-.7.137-.218.22-.355.247-.41z"/><path fill="#fba07c" d="M22.827 12.848c.52.056.946.22 1.275.494.082.274.082.549 0 .823 0 .137-.007.26-.02.37-.015.11-.035.22-.062.329-.082.411-.206.81-.37 1.193-.165.384-.316.768-.453 1.151-.192.44-.315.85-.37 1.234l-.206.617c-.027.22-.09.448-.118.626-.027.179-.059.33-.088.526-.024.166.132.234.165.255.08.05.15.033.288.033.274-.054.52-.137.74-.247l.782-.432c.274-.15.52-.322.74-.514.11-.054.439-.356.494-.411.384-.356 1.017-.934 1.394-1.317.71-.72 1.473-1.456 1.791-1.815 1.45-1.639 2.388-2.363 2.566-2.707.178-.342.309-.596.391-.76.11-.192.206-.247.288-.165.082.082.096.179.041.288-.082.164-.206.418-.37.761-.165.343-1.462 1.62-2.489 2.736-.305.33-1.208 1.236-1.735 1.815l-1.485 1.396c-.22.22-.502.481-.721.673-.22.192-.905.576-.905.576a3.61 3.61 0 0 1-1.193.534 1.27 1.27 0 0 1-.308.042h-.268a2.755 2.755 0 0 1-.74-.227 3.013 3.013 0 0 1-.617-.432 1.295 1.295 0 0 1-.576-1.11 2.515 2.515 0 0 1 .123-1.193c.083-.137.138-.28.165-.432.027-.15.069-.308.123-.473l.7-1.769c.11-.301.22-.61.328-.925.11-.315.22-.623.33-.926.054-.109.102-.219.143-.329a.645.645 0 0 1 .227-.288zM24.31 10.5c.303-.004.395.06.615.25.027 0 .068.042.123.124.192.302.15.508-.123.617-.193.055-.343.055-.453 0a.856.856 0 0 0-.267-.185c-.096-.041-.21-.209-.223-.307-.044-.356.22-.497.329-.499z"/><path fill="#fba07c" d="M33.125 17.613c.055.055.158.233.309.535.15.302.329.603.534.905.206.302.412.555.617.76.206.206.391.24.556.103.191-.191.383-.37.575-.535.192-.164.706-.699.802-.78.096-.083 1.46-1.44 1.46-1.44.083-.11.912-1.173 1.09-1.46.179-.289.377-.583.597-.885.082-.137.178-.185.288-.144.11.04.137.144.082.308-.055.082-.11.179-.164.288-.056.11-.11.206-.165.288-.164.192-.42.658-.585.877-.138.22-.642.768-.793.933-.15.165-.64.683-.848.925a8.498 8.498 0 0 1-.94.926c-.11.11-.255.261-.433.453-.179.192-.377.39-.596.596a4.33 4.33 0 0 1-.658.514c-.22.138-.426.192-.617.165-.303-.055-.543-.208-.782-.391-.637-.489-1.056-1.281-1.11-1.419l-.453-.823c-.138-.137-.22-.232-.247-.288-.082.082-.151.316-.206.7a7.534 7.534 0 0 0-.082.699c-.028.22-.082.37-.164.452-.083.082-.234.151-.453.206-.411.027-.74-.082-.987-.33a2.53 2.53 0 0 0-.309-.267 5.266 5.266 0 0 0-.35-.226c-.136-.109-.177-.273-.123-.493l.103-.885c.041-.342.097-.692.165-1.049.068-.356.13-.699.185-1.028.055-.329.096-.617.123-.864l.206-.822c.11-.384.198-.761.267-1.132.068-.37.144-.746.227-1.13l.41-1.564c.138-.301.324-.937.659-1.81 0 0 .603-1.275.74-1.522l.7-1.316c.054-.109.116-.22.185-.329.068-.11.13-.206.185-.288.137-.329.301-.637.493-.925.192-.288.397-.569.617-.844.165-.219.343-.424.535-.617.192-.191.384-.397.576-.617.247-.273.528-.514.843-.72.315-.205.624-.417.926-.637.41-.329.932-.452 1.563-.37.109.028.212.055.308.082.096.028.212.056.35.082.329.083.63.275.905.576.137.192.233.378.288.556.054.178.095.363.123.555a3 3 0 0 1 .041.843c-.027.261-.055.528-.082.802a5.61 5.61 0 0 1-.535 1.851l-.205.412c-.11.22-.24.466-.391.74a9.8 9.8 0 0 1-.494.802c-.178.261-.35.473-.514.638a5.53 5.53 0 0 0-.74.617l-.658.658a7.112 7.112 0 0 0-.473.432c-.151.15-.323.295-.515.432-.055.055-.103.11-.144.164a.365.365 0 0 1-.185.124c-.22.192-.439.377-.658.555-.22.179-.466.35-.74.514-.275.22-.563.411-.864.576-.302.165-.543.401-.823.576l-.28.173s-.094.735-.232 1.195c.04-.132.34-.258.656-.422a6.699 6.699 0 0 1 1.05-.432 4.428 4.428 0 0 1 1.212-.206c.426-.013.802.09 1.132.309.137.11.322.233.555.37.233.138.309.357.227.658-.083.22-.241.419-.474.597-.233.178-.494.349-.781.514-.288.164-.576.322-.864.473a3.847 3.847 0 0 0-.72.473l-.74.699a.364.364 0 0 0-.144.144.939.939 0 0 1-.144.185zm-1.44-.864c.302-.247.59-.48.864-.7.274-.218.562-.438.864-.657.22-.165.55-.354.987-.576 1.27-.644 1.124-.932 1.07-.988-.165-.136-.419-.191-.761-.164a3.391 3.391 0 0 0-1.05.267c-.356.151-.699.35-1.028.597-.329.247-.562.508-.699.782 0 .055-.178.795-.206.904-.027.11-.068.508-.04.535zm1.282-4.572c.224-.15.35-.238.477-.333.218-.163.394-.27.586-.422.192-.15.384-.308.576-.473l1.316-1.028.453-.411 1.604-1.399.164-.082a7.78 7.78 0 0 0 1.11-1.687 9.887 9.887 0 0 0 .66-1.85c.054-.138.081-.275.081-.412 0-.137.027-.274.083-.411.054-.247.082-.494.082-.74v-.782c0-.11-.007-.212-.02-.309a1.629 1.629 0 0 0-.104-.35c-.137-.218-.267-.342-.39-.37-.124-.027-.295.028-.515.165a.908.908 0 0 0-.35.247c-.096.11-.212.22-.349.329l-1.11 1.07c-.22.246-.432.487-.638.72-.206.232-.405.472-.596.719-.303.439-.583.891-.844 1.357-.26.467-.5.933-.72 1.399a15.51 15.51 0 0 0-.452.987 7.481 7.481 0 0 1-.535 1.028l-.164.494a1.278 1.278 0 0 0-.165.453 8.38 8.38 0 0 0-.39 1.11c-.097.357-.2.894-.309 1.278 0 0 .386-.248.459-.297z"/><path fill="#fba07c" d="M47.014 16.285c-.138.329-.268.644-.418 1.015-.151.37-.295.706-.432 1.007-.055.138-.206.398-.452.782-.247.384-.467.658-.658.823-.11.11-.275.226-.494.35-.22.123-.453.232-.7.328a8.679 8.679 0 0 1-.719.247 2.094 2.094 0 0 1-.556.103 1.807 1.807 0 0 1-.72-.062 9.535 9.535 0 0 1-.678-.226 1.321 1.321 0 0 1-.39-.247c-.124-.11-.241-.22-.35-.329-.193-.22-.37-.425-.535-.617a3.401 3.401 0 0 1-.452-.7c-.192-.383-.288-.74-.288-1.069a3.977 3.977 0 0 1 .04-1.275c.083-.411.193-.808.33-1.193.054-.082.103-.17.144-.267a.588.588 0 0 0 .02-.35c-.438-.384-.7-.808-.782-1.275a2.24 2.24 0 0 1 .165-1.337c.192-.424.48-.815.864-1.172a3.186 3.186 0 0 1 1.275-.74 4.55 4.55 0 0 1 1.625-.268c.535.014.911.062 1.131.144.576.275 1.042.604 1.399.988.355.384.643.768.863 1.151.22.385.384.748.494 1.09.109.343.191.61.247.802.082.302.13.652.144 1.05.013.397.006.651-.021.76.137.055.411.041.823-.041a13.687 13.687 0 0 0 2.55-.782c.384-.164.617-.314.7-.452l.246-.165c.082-.054.192-.068.329-.04.027.027.027.082 0 .164a.515.515 0 0 1-.123.205 13.2 13.2 0 0 1-.864.556 7.502 7.502 0 0 1-.946.473c-.384.137-.84.287-1.378.411-.458.106-.836.136-1.433.158zm-.315-.446c.11-.411.082-.952-.082-1.625a7.361 7.361 0 0 0-.782-1.933 6.01 6.01 0 0 0-1.275-1.563c-.493-.425-1.028-.61-1.604-.555-.44.055-.83.117-1.172.185a4.424 4.424 0 0 0-.967.309c-.411.246-.74.52-.987.822a2.426 2.426 0 0 0-.494.946 1.705 1.705 0 0 0 .535 1.728c0-.027.047-.11.144-.247.096-.137.199-.281.308-.432.11-.15.213-.294.309-.432.096-.137.273-.322.396-.363.124-.041.639-.09.776-.007h.124c.164-.027.294.007.39.103.096.096.212.199.35.308.151.152.2.32.147.506-.014.05-.106.296-.188.42-.082.123-.179.26-.288.411-.11.151-.206.295-.288.432-.082.137-.123.22-.123.247a.93.93 0 0 0 .247.164c.191.056.37.103.534.144.165.041.926.165 1.131.206.206.041 1.35.13 1.707.185.356.055.74.069 1.152.041zm-4.401 4.525c.603 0 1.117-.089 1.542-.267.425-.178.775-.391 1.049-.638.274-.247.487-.5.637-.76.151-.261.268-.474.35-.639.11-.219.212-.473.309-.76.095-.288.185-.542.267-.761.027-.055.055-.103.082-.144.027-.041-.014-.147.041-.144-.235-.013-.41.048-.822-.021a6.526 6.526 0 0 0-1.029-.103c-.22 0-.487-.027-.802-.082-.315-.055-.624-.11-.925-.165a9.185 9.185 0 0 1-.823-.185 3.915 3.915 0 0 0-.411-.102c-.11.164-.2.37-.268.617l-.185.658a3.641 3.641 0 0 0-.205 1.151c0 .083.013.24.04.473.028.234.09.48.186.74.095.262.22.501.37.72.15.22.35.357.597.412z"/><path fill="#fba07c" d="M50.99 22.367c.138.055.316.055.535 0l.535-.267a2.57 2.57 0 0 0 .494-.35c.137-.137.273-.267.411-.39.137-.124.726-.68.782-.762.109-.11.28-.294.514-.555.232-.26.459-.52.678-.782.22-.26.418-.5.597-.72.178-.219.35-.402.431-.54.083-.137.371-.556.453-.693.055-.11.158-.295.309-.556.15-.26.294-.473.431-.637.138-.137.26-.178.37-.124.11.056.124.165.042.33-.138.22-.288.487-.453.801-.164.316-.246.488-.246.515-.333.526-.548.898-1.043 1.476-.43.502-1.137 1.252-1.22 1.362-.082.11-.178.226-.287.35l-.309.349c-.097.11-.624.535-.679.617a3.64 3.64 0 0 1-.246.226 3.783 3.783 0 0 0-.247.226c-.22.138-.453.268-.7.391a3.038 3.038 0 0 1-.822.267c-.165 0-.288-.013-.37-.04a3.078 3.078 0 0 1-1.522-.7l-.7-.576a1.5 1.5 0 0 1-.288-.514 3.543 3.543 0 0 1-.123-.596 7.647 7.647 0 0 1-.062-1.255c.014-.425.062-.857.144-1.296.11-.383.213-.781.309-1.193.096-.41.213-.808.35-1.193l.37-1.11.37-1.316c.109-.411.233-.83.37-1.255.137-.425.274-.843.411-1.254l.247-.659c.082-.273.178-.534.288-.78.11-.248.206-.495.288-.741.137-.384.294-.768.473-1.152.178-.384.35-.768.514-1.152.082-.191.178-.376.288-.555.11-.178.22-.35.33-.514a4.547 4.547 0 0 0 .41-.658c.083-.11.165-.233.247-.37.083-.138.165-.247.247-.33.22-.301.446-.568.679-.802.232-.232.692-.72 1.768-1.316.319-.176.706-.212 1.09-.267.11-.027.562.069.7.123.438.138.781.309 1.028.514.247.206.432.432.555.68.124.246.199.507.227.78.027.275.098.82-.041 1.893-.05.379-.275.727-.412 1.11-.192.412-.39.81-.596 1.193-.206.385-.446.768-.72 1.152a.95.95 0 0 1-.124.205c-.164.357-1.083 1.496-1.357 1.77l-.247.287c-.028.056-.178.213-.452.473-.275.261-.48.46-.617.597l-1.481 1.522c-.356.289-.55.436-.927.74-.266.214-.623.426-.924.617-.11.028-.192.138-.247.33l-.411 1.233c-.138.411-.247.85-.33 1.316-.055.302-.116.604-.185.905-.068.302-.13.617-.185.946a5.394 5.394 0 0 0-.082.967c0 .343.027.679.082 1.008.055.137.096.267.124.39a.61.61 0 0 0 .165.309zm7.898-20.114c-.192-.137-.398-.103-.617.103-.22.206-.411.377-.575.514a8.406 8.406 0 0 0-.988.987c-.302.357-.603.727-.905 1.11a4.075 4.075 0 0 0-.617.906c-.164.329-.343.644-.534.946-.22.384-.405.775-.556 1.172-.15.398-.295.802-.432 1.213l-1.07 3.126a54.48 54.48 0 0 1-.246.803c-.082.26-.36 1.213-.36 1.213s.515-.296.707-.434c.192-.136.457-.33.666-.471.49-.33.655-.582.984-.884.33-.302 2.502-2.661 2.759-3.119.123-.22.838-1.125 1.003-1.427.384-.603.699-1.206.946-1.81l.329-.987a2.74 2.74 0 0 0 .123-.863V4c0-.178-.014-.377-.041-.597a2.389 2.389 0 0 0-.185-.658 1.109 1.109 0 0 0-.39-.493z"/></symbol><symbol id="icon-menu" viewBox="0 0 24 17"><title>Otevřít menu</title><path fill="currentColor" d="M1.5 0h21a1.5 1.5 0 1 1 0 3h-21a1.5 1.5 0 1 1 0-3zM1.5 14h21a1.5 1.5 0 0 1 0 3h-21a1.5 1.5 0 1 1 0-3zM1.5 7h21a1.5 1.5 0 0 1 0 3h-21a1.5 1.5 0 1 1 0-3z"/></symbol><symbol id="icon-slusna_firma" viewBox="0 0 32 32"><title>Jsme Slušná firma</title><path fill="currentColor" d="M5 0h22c2.8 0 5 2.2 5 5v22c0 2.8-2.2 5-5 5H5c-2.8 0-5-2.2-5-5V5c0-2.8 2.2-5 5-5z"/><g fill="#FFF"><path d="M13.6 14c-.1.2-.3.3-.4.5-1.1 1.9-2.2 3.9-3.3 5.8-.4.7-.9 1-1.4.8-.5-.3-.5-.9-.1-1.6.9-1.7 1.9-3.4 2.8-5 .1-.2.2-.4.3-.5-.1 0-.1-.1-.2-.1-.1.1-.3.2-.3.4l-3.3 6c-.4.7-.9 1-1.4.8-.4-.2-.5-.9-.1-1.6 1.1-2 2.2-3.9 3.3-5.9.1-.2.2-.4.3-.5-.1 0-.1-.1-.2-.1-.1.2-.2.3-.3.5l-2.7 4.8c-.1.1-.1.2-.2.4-.4.6-.9.8-1.3.6-.4-.2-.5-.8-.2-1.4 1.5-2.8 3.1-5.5 4.6-8.3 0-.4.1-.6.2-.7-.1 0-.1-.1-.2-.1-.4.7-.8 1.5-1.2 2.2-.5.9-1.4 1.2-2.3.7v-.2c.8-1.4 1.5-2.9 2.4-4.3.9-1.4 2.4-2 4-2.3 1.5-.3 2.9 0 4.2.8 1.4.8 2.8 1.6 4.1 2.3.2.1.3.2.6.4-.2.1-.3.1-.4.2-1.5.2-2.6 1-3.4 2.3-1.4 2.6-2.9 5.2-4.3 7.7-.1.2-.2.3-.3.5-.3.5-.7.6-1.2.4-.4-.2-.6-.7-.3-1.2.6-1.2 1.3-2.3 1.9-3.5.1-.2.3-.5.4-.7l-.1-.1zM18.4 18c.1-.2.3-.3.4-.5 1.1-1.9 2.2-3.9 3.3-5.8.4-.7.9-1 1.4-.8.5.3.5.9.1 1.6-.9 1.7-1.9 3.4-2.8 5-.1.2-.2.4-.3.5.1 0 .1.1.2.1.1-.2.2-.3.3-.5l3.3-6c.4-.7.9-1 1.4-.8.4.2.5.9.1 1.6-1.1 2-2.2 3.9-3.3 5.9-.1.2-.2.4-.3.5.1 0 .1.1.2.1.1-.2.2-.3.3-.5l2.7-4.8c.1-.1.1-.2.2-.4.4-.6.9-.8 1.3-.6.4.2.5.8.2 1.4-1.5 2.8-3.1 5.5-4.6 8.3-.1.2-.2.4-.2.6.1 0 .1.1.2.1.4-.7.8-1.5 1.2-2.2.5-.9 1.4-1.2 2.3-.7v.2c-.8 1.4-1.5 2.9-2.4 4.3-.9 1.4-2.4 2-4 2.3-1.5.3-2.9 0-4.2-.8-1.4-.8-2.8-1.6-4.1-2.3-.2-.1-.3-.2-.6-.4.2-.1.3-.1.4-.2 1.5-.2 2.6-1 3.4-2.3 1.4-2.6 2.9-5.2 4.3-7.7.1-.2.2-.3.3-.5.3-.5.7-.6 1.2-.4.4.2.6.7.3 1.2-.6 1.2-1.3 2.3-1.9 3.5-.1.2-.3.5-.4.7 0 .2.1.3.1.3z"/></g></symbol></svg>