<?xml version="1.0" encoding="UTF-8"?><!DOCTYPE svg PUBLIC "-//W3C//DTD SVG 1.1//EN" "http://www.w3.org/Graphics/SVG/1.1/DTD/svg11.dtd"><svg xmlns="http://www.w3.org/2000/svg"><symbol id="icon-divider" viewBox="0 0 12 4"><title>Divider</title><path fill="currentColor" d="M1 1c.552 0 1 .448 1 1s-.448 1-1 1-1-.448-1-1 .448-1 1-1zM6 0c1.104 0 2 .895 2 2s-.896 2-2 2c-1.105 0-2-.895-2-2s.895-2 2-2zM11 1c.552 0 1 .448 1 1s-.448 1-1 1-1-.448-1-1 .448-1 1-1z"/></symbol><symbol id="icon-expand" viewBox="0 0 32.044 32.004"><path fill="currentColor" d="M27.898 10.482l-.005-8.305c0-1.146.928-2.075 2.073-2.075s2.073.93 2.073 2.074l.003 8.306c0 1.146-.928 2.075-2.073 2.075-1.144 0-2.072-.93-2.072-2.075zM21.498 0l8.374.023c1.155.004 2.095.928 2.098 2.063.004 1.136-.93 2.053-2.084 2.05l-8.374-.024c-1.155-.004-2.095-.928-2.1-2.063C19.41.913 20.343-.005 21.5 0zM31.392.704c.786.78.786 2.047 0 2.828L21.43 13.43c-.786.78-2.06.78-2.847 0-.786-.78-.786-2.047 0-2.828l9.963-9.9c.786-.78 2.06-.78 2.846.002zM13.41 18.592c.783.784.783 2.056 0 2.84l-9.917 9.944c-.783.785-2.05.785-2.833 0-.783-.785-.783-2.056 0-2.84l9.918-9.944c.782-.785 2.05-.785 2.833 0zM4.17 21.474l-.037 8.353c-.006 1.152-.936 2.09-2.077 2.097C.914 31.93-.006 31 0 29.85l.038-8.354c.006-1.152.936-2.09 2.077-2.097 1.142-.008 2.062.92 2.056 2.074zM10.495 31.983l-8.345.02C1 32.007.067 31.084.07 29.94c0-1.142.936-2.07 2.087-2.072l8.346-.02c1.15-.002 2.083.922 2.08 2.064 0 1.142-.936 2.07-2.088 2.07z"/></symbol><symbol id="icon-facebook" viewBox="0 0 24 24"><title>Facebook</title><path fill="currentColor" d="M3.75 0h16.5C22.32 0 24 1.68 24 3.75v16.5c0 2.07-1.68 3.75-3.75 3.75H3.75C1.68 24 0 22.32 0 20.25V3.75C0 1.68 1.68 0 3.75 0z"/><path fill="#fff" d="M10.473 19.125h2.668v-6.49h2.165l.326-2.545h-2.49V8.337s-.03-.432.178-.72c.177-.25.527-.36 1.217-.36h1.215v-2.28s-1.78-.25-2.994.028c-1.215.278-2.283 1.374-2.283 2.778v2.31H8.25v2.544h2.223v6.488z"/></symbol><symbol id="icon-instagram" viewBox="0 0 24 24"><title>Instagram</title><path fill="currentColor" d="M3.75 0h16.5C22.32 0 24 1.68 24 3.75v16.5c0 2.07-1.68 3.75-3.75 3.75H3.75C1.68 24 0 22.32 0 20.25V3.75C0 1.68 1.68 0 3.75 0z"/><path fill="#fff" d="M5.25 7.207c0-1.192.358-1.957 2.216-1.957h9.403c1.23 0 1.88.585 1.88 1.89v9.855c0 1.238-.873 1.755-1.746 1.755H6.862S5.25 17.58 5.25 16.928v-9.72z"/><path fill="currentColor" d="M14.45 7.612c0-.607.27-.877.74-.877h1.41s.604.338.604.608v1.553c0 .315-.224.54-.537.54h-1.612s-.604-.225-.604-.608V7.612zM15.996 10.988h1.21v5.535c0 .698-.202.675-.673.675H7.6c-.672 0-.806-.428-.806-.81v-5.4h1.21s-.533 1.766.402 3.307c.565.932 1.73 1.958 3.694 1.958 1.97 0 4.792-1.733 3.896-5.265zM12.033 9.3c1.484 0 2.687 1.21 2.687 2.7 0 1.49-1.203 2.7-2.687 2.7-1.484 0-2.686-1.21-2.686-2.7 0-1.49 1.203-2.7 2.686-2.7z"/></symbol><symbol id="icon-logo" viewBox="0 0 400.005 217.292"><title>Linnette logo</title><path fill="#FBA07C" d="M93.382 165.355c-.552 1.062-1.296 2.002-2.238 2.82-.158.16-.317.236-.47.236-.318 0-.59-.117-.826-.353s-.353-.51-.353-.826v-42.7h-16.02v37.51c0 4 1.332 7.358 4.004 10.078 2.668 2.72 5.89 4.077 9.66 4.077 3.77 0 7.026-1.357 9.776-4.077 2.746-2.72 4.123-6.078 4.123-10.078h-6.833c0 1.148-.277 2.253-.825 3.315zm66.91-2.134c-.08.473-.276 1.026-.59 1.652-.157.79-.51 1.533-1.06 2.24-.55.71-1.14 1.063-1.766 1.063-.47 0-.747-.077-.825-.236-.08-.156-.117-.392-.117-.71v-29.488c0-2.2-.47-4.206-1.414-6.016-.943-1.806-2.202-3.34-3.77-4.6-1.573-1.257-3.34-2.24-5.302-2.95-1.966-.707-3.968-1.06-6.008-1.06-1.414 0-2.827.158-4.24.47-1.415.318-2.75.71-4.006 1.18-1.885.63-3.692 1.534-5.42 2.714-1.73 1.18-3.297 2.558-4.71 4.13-1.102-2.987-2.79-5.15-5.066-6.49-2.28-1.333-4.675-2.004-7.186-2.004h-.707c-3.457.16-6.597 1.456-9.424 3.893-2.827 2.44-4.24 5.78-4.24 10.025h6.83c0-1.257.273-2.396.826-3.42.55-1.022 1.296-1.848 2.238-2.478.155 0 .236-.077.236-.236h.706c0 .16.078.318.237.473.155.16.313.236.47.236V176.196h16.257V143.17c.313-1.57.942-3.068 1.885-4.483.942-1.415 2.04-2.672 3.298-3.775.155-.155.47-.43.942-.826.47-.39 1.02-.745 1.65-1.062.154-.155.27-.273.352-.354.076-.077.194-.118.352-.118.626-.472 1.255-.903 1.885-1.298.626-.39 1.02-.51 1.178-.354.313-.155.59-.236.825-.236h.59c1.096 0 2.08.276 2.944.826.86.553 1.296 1.456 1.296 2.713v27.838c0 3.934 1.373 7.237 4.123 9.91 2.746 2.675 6.008 4.01 9.777 4.01 3.77 0 7.027-1.335 9.777-4.01 2.746-2.673 4.123-5.976 4.123-9.91h-6.832c.002.318-.04.71-.116 1.18zm65.496 0c-.08.473-.276 1.026-.59 1.652-.157.79-.51 1.533-1.06 2.24-.55.71-1.14 1.063-1.766 1.063-.47 0-.747-.077-.825-.236-.08-.156-.118-.392-.118-.71v-29.488c0-2.2-.472-4.206-1.415-6.016-.942-1.806-2.2-3.34-3.77-4.6-1.572-1.257-3.34-2.24-5.3-2.95-1.967-.707-3.97-1.06-6.01-1.06-1.413 0-2.826.158-4.24.47-1.414.318-2.75.71-4.005 1.18-1.885.63-3.692 1.534-5.42 2.714-1.73 1.18-3.297 2.558-4.71 4.13-1.102-2.987-2.79-5.15-5.066-6.49-2.28-1.333-4.675-2.004-7.186-2.004h-.706c-3.457.16-6.597 1.456-9.424 3.893-2.827 2.44-4.24 5.78-4.24 10.025h6.83c0-1.257.273-2.396.826-3.42.55-1.022 1.296-1.848 2.238-2.478.155 0 .236-.077.236-.236h.706c0 .16.078.318.237.473.156.16.314.236.472.236V176.196h16.256V143.17c.313-1.57.942-3.068 1.885-4.483.942-1.415 2.04-2.672 3.298-3.775.156-.155.472-.43.943-.826.47-.39 1.02-.745 1.65-1.062.154-.155.27-.273.352-.354.077-.077.195-.118.353-.118.626-.472 1.255-.903 1.885-1.298.626-.39 1.02-.51 1.178-.354.314-.155.59-.236.826-.236h.59c1.096 0 2.08.276 2.944.826.86.553 1.296 1.456 1.296 2.713v27.838c0 3.934 1.373 7.237 4.123 9.91 2.745 2.675 6.007 4.01 9.776 4.01 3.77 0 7.027-1.335 9.777-4.01 2.746-2.673 4.123-5.976 4.123-9.91h-6.832c.002.318-.04.71-.116 1.18zm45.233 3.304c-2.436 1.416-4.987 2.282-7.656 2.595h-.705c-2.043.158-3.652-.51-4.83-2.006-1.178-1.493-2.16-3.185-2.945-5.072-.158-.627-.353-1.257-.59-1.887-.235-.627-.433-1.257-.588-1.887l.707-.236c1.097-.313 2.275-.667 3.534-1.062 1.255-.39 2.51-.826 3.77-1.297 4.395-1.57 8.364-3.812 11.898-6.724 3.534-2.91 5.3-6.725 5.3-11.443v-1.886c-.63-4.402-2.63-7.55-6.007-9.438-3.38-1.887-7.108-2.908-11.19-3.067h-.707c-8.17.16-14.806 2.912-19.908 8.257-5.106 5.35-7.738 11.482-7.893 18.4 0 3.304.665 6.57 2.002 9.79 1.333 3.226 3.416 6.175 6.243 8.848 2.356 2.204 4.907 3.933 7.657 5.19 2.746 1.26 5.537 2.046 8.364 2.36.47.158.942.235 1.414.235h1.414c4.082 0 8.088-.903 12.015-2.713 3.923-1.806 7.303-4.442 10.13-7.903l-5.183-4.247c-1.733 2.046-3.813 3.775-6.246 5.19zm-18.494-15.453v-.353c0-1.098.077-2.396.236-3.893.155-1.493.47-3.026.942-4.6.626-2.986 1.727-5.74 3.298-8.257 1.568-2.514 3.61-3.775 6.126-3.775h1.06c.39 0 .744.08 1.06.236 1.568.158 3.063.708 4.476 1.65s2.198 2.36 2.356 4.247v.944c0 2.83-1.178 5.19-3.534 7.076s-5.03 3.384-8.01 4.482c-1.414.63-2.827 1.143-4.24 1.533-1.415.395-2.674.75-3.77 1.063v-.352zm86.58 14.407c-.552 1.146-1.296 2.046-2.238 2.698-.158.16-.276.236-.353.236-.08 0-.2-.076-.353-.235-.317 0-.552-.118-.707-.354-.158-.235-.236-.43-.236-.59v-37.275h10.837v-6.842H335.22v-39.63h-16.257v39.633H303.886V83.482H287.63v39.634h-6.597v6.842h6.597v32.084c0 4 1.373 7.358 4.123 10.078 2.746 2.72 6.008 4.077 9.777 4.077s7.027-1.357 9.777-4.077c2.746-2.72 4.123-6.078 4.123-10.078h-6.832c0 1.146-.276 2.293-.825 3.435-.552 1.146-1.296 2.046-2.238 2.698-.158.16-.276.236-.353.236-.08 0-.2-.076-.353-.235-.318 0-.553-.118-.708-.354-.158-.235-.236-.43-.236-.59v-37.275h15.077v32.084c0 4 1.373 7.357 4.123 10.077 2.746 2.72 6.008 4.077 9.777 4.077 3.77 0 7.027-1.357 9.777-4.077 2.746-2.72 4.123-6.078 4.123-10.078h-6.832c0 1.148-.276 2.294-.824 3.437zm55.716-4.144c-1.73 2.046-3.81 3.775-6.243 5.19-2.438 1.416-4.99 2.282-7.658 2.595h-.707c-2.043.16-3.652-.51-4.83-2.005-1.178-1.493-2.16-3.185-2.945-5.072-.157-.626-.352-1.256-.588-1.886-.236-.627-.434-1.257-.59-1.887l.708-.236c1.097-.312 2.275-.666 3.534-1.06 1.255-.392 2.51-.827 3.77-1.298 4.395-1.57 8.364-3.812 11.898-6.724 3.534-2.908 5.3-6.724 5.3-11.442v-1.888c-.628-4.4-2.63-7.55-6.007-9.437-3.38-1.886-7.108-2.907-11.19-3.066h-.706c-8.17.16-14.806 2.912-19.908 8.257-5.106 5.35-7.738 11.483-7.892 18.402 0 3.303.666 6.57 2.003 9.79 1.334 3.225 3.417 6.174 6.244 8.847 2.356 2.203 4.907 3.932 7.657 5.19 2.747 1.26 5.538 2.045 8.365 2.358.47.16.942.236 1.414.236h1.413c4.082 0 8.088-.903 12.015-2.713 3.924-1.805 7.304-4.44 10.13-7.902l-5.186-4.245zm-24.738-10.262v-.353c0-1.098.077-2.396.236-3.893.155-1.493.47-3.026.942-4.6.626-2.986 1.726-5.74 3.298-8.257 1.568-2.514 3.61-3.775 6.126-3.775h1.06c.39 0 .744.08 1.06.236 1.568.158 3.063.708 4.476 1.65 1.414.945 2.198 2.36 2.356 4.247v.944c0 2.83-1.178 5.19-3.534 7.076s-5.03 3.384-8.01 4.482c-1.414.63-2.827 1.143-4.24 1.533-1.415.395-2.674.75-3.77 1.063v-.352z"/><path fill-rule="evenodd" clip-rule="evenodd" fill="#FBA07C" d="M150.123 192.875c-.142.707-.39 1.344-.742 1.91-.353.565-.672 1.132-.953 1.7-1.84 3.536-4.383 6.05-7.633 7.537-3.253 1.486-6.928 2.23-11.026 2.23-3.678 0-7.74-.532-12.192-1.593-4.453-1.063-9.084-2.443-13.888-4.14-6.222-2.267-12.298-4.778-18.235-7.54-5.937-2.76-11.805-5.483-17.6-8.173-.566-.282-1.096-.53-1.59-.743-.496-.212-.953-.458-1.377-.743-3.677-1.698-7.352-3.43-11.026-5.2-3.677-1.77-7.352-3.43-11.026-4.99 2.26-3.68 3.992-7.784 5.195-12.316 1.198-4.53 1.8-9.27 1.8-14.226v-55.31c0-.637.07-1.307.213-2.017.563-5.377 2.226-10.297 4.983-14.755s7.173-6.758 13.252-6.9h.212c.563 0 1.166.035 1.802.105.636.073 1.236.18 1.802.318 3.532.85 6.712 2.584 9.542 5.202 2.826 2.62 4.31 5.77 4.453 9.448 0 .425-.037.886-.107 1.38-.073.498-.18 1.028-.318 1.592-.71-1.274-1.557-2.3-2.544-3.08-.99-.775-2.05-1.38-3.18-1.804-.285-.14-.636-.246-1.06-.318-.424-.07-.848-.106-1.272-.106-1.84 0-3.43.53-4.77 1.592-1.346 1.062-2.015 2.515-2.015 4.353 0 .992.176 2.017.53 3.08.35 1.06 1.024 2.16 2.014 3.29.848.992 1.73 1.805 2.65 2.442.92.636 1.873 1.027 2.863 1.167.282.143.6.212.954.212h.954c2.826.142 5.407-1.063 7.74-3.61s3.498-5.59 3.498-9.13c0-7.076-2.65-12.56-7.95-16.455-5.302-3.89-11.133-5.84-17.494-5.84-9.19 0-16.433 3.435-21.734 10.3-5.3 6.866-8.66 14.473-10.072 22.824-.285 1.416-.497 2.902-.636 4.458-.142 1.56-.212 3.046-.212 4.46v50.532c0 2.833-.142 5.52-.424 8.068-.285 2.548-.78 4.883-1.484 7.007-3.11-1.13-6.043-2.017-8.8-2.654-2.757-.636-5.337-.954-7.74-.954H14.42c-4.806.143-8.374 1.63-10.707 4.46-2.332 2.832-3.572 5.874-3.71 9.13 0 3.114 1.165 5.944 3.498 8.492 2.333 2.548 5.76 3.822 10.285 3.822 4.804-.143 9.363-1.274 13.676-3.397 4.31-2.123 8.022-5.096 11.133-8.918 3.817 1.84 7.773 3.822 11.874 5.945 4.098 2.123 8.27 4.316 12.51 6.582 2.544 1.413 5.546 3.112 9.012 5.096 3.46 1.98 7.172 4.034 11.13 6.157 3.533 1.7 7.21 3.43 11.027 5.202 3.817 1.768 7.633 3.36 11.45 4.777 3.817 1.274 7.633 2.336 11.45 3.185 3.817.848 7.49 1.273 11.026 1.273 5.795 0 10.99-1.38 15.585-4.14 4.592-2.76 8.02-7.468 10.284-14.12.424-.99.706-1.698.848-2.122.14-.424.212-.848.212-1.273 0-.143.07-.212.212-.212V195l-5.09-2.125zm-126.905-10.51c-2.757 2.054-5.974 3.08-9.648 3.08-2.12 0-3.89-.602-5.3-1.806-1.416-1.202-2.12-2.725-2.12-4.566v-.743c0-.21.07-.457.21-.742 0-.282.034-.53.107-.743.07-.212.176-.458.318-.743.706-1.7 1.872-2.866 3.5-3.503 1.622-.638 3.425-.956 5.406-.956.564 0 1.167.036 1.803.106.636.073 1.236.106 1.802.106 1.272.285 2.508.53 3.71.743 1.2.21 2.297.53 3.288.954.706.143 1.378.318 2.014.53s1.166.392 1.59.532c-1.696 3.115-3.922 5.7-6.68 7.75z"/><path fill="#FA987D" d="M185.06 196.967h-7.573v18.872h2.345v-7.5h5.227c3.757 0 5.905-2.602 5.905-5.686s-2.12-5.687-5.905-5.687zm-.283 9.28h-4.945v-7.186h4.945c2.232 0 3.758 1.472 3.758 3.594s-1.525 3.594-3.758 3.594zm22.67-1.16h-11.02v-8.12h-2.344v18.873h2.345v-8.658h11.02v8.658h2.345v-18.872h-2.345v8.12zm15.355-8.43c-5.566 0-9.353 4.187-9.353 9.76s3.785 9.76 9.352 9.76c5.566 0 9.38-4.187 9.38-9.76s-3.814-9.76-9.38-9.76zm0 17.428c-4.238 0-6.923-3.282-6.923-7.668 0-4.414 2.683-7.668 6.922-7.668 4.21 0 6.95 3.253 6.95 7.667 0 4.386-2.74 7.668-6.95 7.668zm10.975-15.024h5.962v16.78h2.344v-16.78h5.99v-2.093h-14.298v2.094zm25.24-2.404c-5.565 0-9.352 4.188-9.352 9.76s3.786 9.762 9.353 9.762 9.38-4.188 9.38-9.76-3.814-9.762-9.38-9.762zm0 17.43c-4.237 0-6.922-3.283-6.922-7.67 0-4.413 2.684-7.667 6.923-7.667 4.21 0 6.95 3.253 6.95 7.667 0 4.386-2.74 7.668-6.95 7.668zm20.555-5.858h6.5v3.82c-.962.962-2.827 2.037-5.087 2.037-4.125 0-7.262-3.197-7.262-7.668 0-4.527 3.136-7.668 7.262-7.668 2.26 0 4.267 1.074 5.453 2.602l1.865-1.188c-1.64-2.037-3.956-3.508-7.318-3.508-5.37 0-9.692 3.876-9.692 9.76 0 5.858 4.323 9.79 9.692 9.79 3.08 0 5.65-1.3 7.403-3.28v-6.792h-8.816v2.094zm26.148-5.574c0-3.48-2.487-5.687-5.934-5.687h-7.573v18.872h2.345v-7.5h3.786l4.775 7.5h2.768l-5.086-7.697c2.573-.226 4.918-2.093 4.918-5.49zm-11.16 3.622v-7.215h4.944c2.232 0 3.786 1.444 3.786 3.594 0 2.122-1.554 3.622-3.786 3.622h-4.945zm20.522-9.31l-7.6 18.873h2.683l1.667-4.217h9.38l1.668 4.216h2.684l-7.573-18.873h-2.908zm-2.543 12.592l3.983-10.186 4.012 10.186h-7.996zm23.066-12.59h-7.573v18.87h2.345v-7.497h5.227c3.758 0 5.906-2.602 5.906-5.686s-2.118-5.687-5.904-5.687zm-.283 9.28h-4.945v-7.187h4.945c2.232 0 3.758 1.472 3.758 3.594s-1.525 3.594-3.757 3.594zm22.67-1.16h-11.02v-8.12h-2.345v18.872h2.345v-8.658h11.02v8.658h2.345v-18.872h-2.345v8.12zm19.254-8.12l-5.85 8.77-5.848-8.77h-2.742l7.43 10.892v7.98h2.346v-7.98l7.403-10.893h-2.74z"/><g><path fill="#81F2DF" d="M122.922 67.14c-3.045-.34-6.25-.985-9.283-2.06 2.6 2.253 5.502 4.363 8.603 6.33 8.304-.462 16.593-2.47 22.706-7.492-6.933 2.835-14.575 4.053-22.028 3.223M187.446 47.775c-5.89-5.252-12.58-9.318-19.5-13-1.128-.16-2.247-.318-3.344-.467 3.4 2.12 6.614 4.53 9.755 7.09 3.636 2.684 7.07 5.63 10.183 8.843 5.26 4.898 10.046 10.26 12.83 16.99 1.38-.126 2.754-.28 4.12-.45-1.363-7.623-8.583-14.136-14.044-19.005M176.315 46.093c4.906 3.83 10.02 8.27 14.087 13.337-1.98-2.894-4.23-5.627-6.702-8.187-1.908-1.775-3.88-3.49-5.837-5.186-1.43-1.24-2.872-2.458-4.327-3.645-4.54-3.344-9.378-6.28-14.268-8.783-1.726-.207-3.386-.387-4.977-.54 7.65 3.805 15.268 7.73 22.025 13.003M108.65 42.17c-2.016-2.187-4.137-5.25-6.3-7.32-3.337 10.622.73 19.888 8.497 27.646 4.097 2.05 8.86 3.055 13.205 3.442 7.904.705 15.964-.998 23.083-4.435-5.268-2.447-10.486-5.468-15.616-9.168 20.917 12.834 42.388 16.443 62.56 15.124-4.153-8.416-12.183-15.53-19.575-21.103-7.318-5.515-15.586-9.513-23.765-13.57-8.596-.633-14.312-.2-14.48 2.18 6.152.846 8.15 3.13 13.038 3.423-8.983 1.58-31.416-13.437-44.488-9.176-5.04 1.643 3.42 11.11 3.84 12.956M176.596 80.688c-4.105 2.798-8.358 5.305-12.854 7.392.763.177 1.512.344 2.243.5 4.005-2.186 7.454-4.823 10.61-7.892M203.47 89.917c2.384-.193 4.752-.422 7.074-.714 1.337-1.45 2.632-2.94 3.854-4.498 2.753-3.505 5.115-7.27 7.42-11.08 1.88-3.11 3.7-6.356 4.35-9.953-.544.167-1.097.32-1.643.48-4.67 10.105-12.114 18.978-21.054 25.765M161.642 87.577c6.992-3.048 13.367-7.138 19.504-11.77.6-.452 1.348.4.88.957-4.166 4.966-8.647 8.968-14.124 12.21 3.333.648 6.244 1.05 8.53 1.19 7.95.485 16.373.486 24.6-.065 9.185-6.574 16.91-15.38 21.803-25.452-22.712 6.48-47.86 8.445-72.103-1.565-5.396 5.977-12.42 10.504-20.066 13.092 10.3 5.235 21.606 9.072 30.976 11.402M129.027 75.326c7.76-2.386 14.94-6.83 20.42-12.787-.268-.117-.537-.223-.806-.343-6.09 6.78-15.177 9.608-24.48 10.392 1.58.95 3.21 1.86 4.867 2.736"/><path fill="#4AE5BD" d="M256.676 40.487c-2.9-2.186-6.16-3.754-9.607-4.88-3.8-1.246-7.724-1.95-11.673-2.536-.442.17-.87.358-1.272.58 10.03.77 20.74 5.812 26.09 13.796.778-.396 1.537-.788 2.292-1.18-.665-2.3-4.2-4.547-5.83-5.78M276.838 38.377c.933-.536 1.84-1.058 2.696-1.552-2.857-4.45-7.71-7.195-12.927-8.472.568.52 1.1.976 1.624 1.413 3.355 2.262 6.27 5.164 8.608 8.61M253.317 31.993c-.103.06-.2.114-.305.177-.03.6 6.29 3.047 6.52 3.435-.558-.1-12.353-4.465-20.87-3.333 4.04.694 8.02 1.617 11.83 3.205 3.44 1.435 6.465 3.397 9.287 5.81 1.24 1.063 3.207 2.608 3.888 4.37 4.18-2.197 7.957-4.308 11.324-6.227-6.248-4.83-13.806-7.718-21.675-7.437M286.092 31.67c.31.68-.762 1.218-1.154.598-2.32-3.66-5.7-5.773-9.523-7.08-2.31.293-4.94.93-7.93 2.034 5.35 1.418 10.284 4.33 13.186 8.946 4.642-2.675 8.018-4.588 9.855-5.145-.972-1.598-3.827-5.323-10.268-5.94 2.462 1.53 4.492 3.624 5.835 6.586M173.285 35.32c6.278 3.52 12.29 7.455 17.65 12.38 5.387 4.956 12.127 11.318 13.476 18.9 21.393-2.893 40.92-10.872 56.235-18.56-1.67-2.44-3.857-4.585-6.388-6.4-12.187-7.285-31.533-8.15-38.686-.785 4.37.56 13.12 2.08 21.3 3.197-5.022 1.745-37.243-4.787-63.585-8.732M218.61 88.23c1.853-2.68 3.454-5.55 4.843-8.503 1.946-4.14 4.465-8.675 4.996-13.348-.836 2.595-2.165 5.03-3.573 7.38-2.226 3.71-4.505 7.405-7.13 10.852-1.135 1.49-2.34 2.923-3.577 4.323 1.504-.21 2.98-.45 4.44-.705M254.05 61.817c.29-.514 1.243-.508 1.253.21.077 5.982-2.235 10.854-5.366 15.45 8.51-7.23 15.755-18.19 14.175-28.835-10.208 5.162-21.843 10.397-34.34 14.4.667 6.05-2.633 11.93-5.123 17.225-1.24 2.63-2.63 5.206-4.224 7.64 7.094-1.344 13.56-3.244 18.874-5.757 1.293-.97 2.535-2.012 3.694-3.16.297-.296.564-.612.846-.917.952-1.222 1.94-2.415 2.915-3.612 2.792-3.967 4.89-8.387 7.296-12.643M266.64 61.57c2.447-4.747 5.77-11.662 4-17.173-2.044 1.096-4.164 2.213-6.356 3.338.66 8.944-2.518 19.256-8.342 26.984 2.702-2.27 5.322-4.934 7.463-7.456 1.202-1.892 2.277-3.84 3.234-5.693M278.52 40.085c-2.13 1.183-4.36 2.412-6.707 3.68 1.967 5.646-1.145 12.68-3.62 17.638-1.607 3.222-3.55 6.68-5.894 9.75-.04.076-.08.154-.117.23 1.664-.388 8.546-7.365 9.6-8.505-1.316 3.508-3.545 6.012-2.53 6.83 3.18-1.693 7.28-3.845 10.113-7.274 2.294-7.296 2.47-15.02-.846-22.35M288.113 55.935c.165-.14.294-.275.446-.413 2.824-6.453 2.583-14.48-3.056-19.333-1.254.697-2.545 1.418-3.916 2.184 4.045 5.303 4.63 13.77 3.33 20.322 1.596-1.68 2.888-9.625 2.995-11.9.104 1.617.953 3.26.2 9.14M291.204 41.844c.343.955.623 1.942.823 2.947.406.633.637 1.377.863 2.21-.25-1.77-.85-3.513-1.686-5.156M294.24 50.31c5.113-6.833-2.488-11.763-4.708-13.955 4.213 2.355 9.478 7.337 2.55-3.754-1.34.705-2.815 1.51-4.375 2.37 3.976 3.863 7.237 9.734 6.533 15.34M280.427 39.023c-.252.14-.498.28-.754.42 1.25 2.706 2.05 5.467 2.43 8.247 1.014 1.337 1.74 3.72 2.084 6.125.25-5.27-.767-10.916-3.76-14.792"/><path fill="#4AE5BD" d="M294.313 31.434s12.012-3.587 22.11-13.118c10.1-9.53 12.995-14.373 12.995-14.373L323.12 0s-4.67 12.105-11.005 18.163c-9.543 9.122-18.67 11.614-18.67 11.614l.868 1.657z"/><path fill="none" d="M101.176 0h228.24v90.52h-228.24z"/></g></symbol><symbol id="icon-logo_mobile" viewBox="0 0 400.005 155.845"><title>Logo</title><path fill="#FBA07C" d="M93.382 103.908c-.552 1.062-1.296 2.002-2.238 2.82-.158.16-.317.236-.47.236-.318 0-.59-.118-.826-.354s-.353-.51-.353-.826v-42.7h-16.02v37.51c0 4 1.332 7.358 4.004 10.078 2.668 2.72 5.89 4.077 9.66 4.077 3.77 0 7.026-1.358 9.776-4.078 2.746-2.72 4.123-6.078 4.123-10.078h-6.833c0 1.147-.277 2.252-.825 3.314zm66.91-2.134c-.08.472-.276 1.025-.59 1.65-.157.79-.51 1.534-1.06 2.242s-1.14 1.062-1.766 1.062c-.47 0-.747-.077-.825-.236-.08-.155-.117-.39-.117-.708V76.295c0-2.2-.47-4.206-1.414-6.016-.943-1.807-2.202-3.34-3.77-4.6-1.573-1.258-3.34-2.242-5.302-2.95-1.966-.708-3.968-1.062-6.008-1.062-1.414 0-2.827.16-4.24.472-1.415.317-2.75.708-4.006 1.18-1.885.63-3.692 1.533-5.42 2.713-1.73 1.18-3.297 2.558-4.71 4.13-1.102-2.987-2.79-5.15-5.066-6.49-2.28-1.333-4.675-2.004-7.186-2.004h-.707c-3.457.158-6.597 1.455-9.424 3.892-2.827 2.44-4.24 5.78-4.24 10.026h6.83c0-1.257.273-2.396.826-3.42.55-1.022 1.296-1.848 2.238-2.478.155 0 .236-.077.236-.236h.706c0 .16.078.317.237.472.155.16.313.236.47.236v44.588h16.257V81.72c.313-1.57.942-3.066 1.885-4.48.942-1.416 2.04-2.673 3.298-3.776.155-.155.47-.43.942-.826.47-.39 1.02-.745 1.65-1.062.154-.155.27-.273.352-.354.076-.077.194-.118.352-.118.626-.472 1.255-.903 1.885-1.298.626-.39 1.02-.51 1.178-.354.313-.155.59-.236.825-.236h.59c1.096 0 2.08.276 2.944.826.86.553 1.296 1.456 1.296 2.713v27.838c0 3.933 1.373 7.236 4.123 9.908 2.746 2.677 6.008 4.01 9.777 4.01 3.77 0 7.027-1.333 9.777-4.01 2.746-2.67 4.123-5.974 4.123-9.907h-6.832c.002.318-.04.71-.116 1.18zm65.496 0c-.08.472-.276 1.025-.59 1.65-.157.79-.51 1.534-1.06 2.242s-1.14 1.062-1.766 1.062c-.47 0-.747-.077-.825-.236-.08-.155-.118-.39-.118-.708V76.295c0-2.2-.472-4.206-1.415-6.016-.942-1.807-2.2-3.34-3.77-4.6-1.572-1.258-3.34-2.242-5.3-2.95-1.967-.708-3.97-1.062-6.01-1.062-1.413 0-2.826.16-4.24.472-1.414.317-2.75.708-4.005 1.18-1.885.63-3.692 1.533-5.42 2.713-1.73 1.18-3.297 2.558-4.71 4.13-1.102-2.987-2.79-5.15-5.066-6.49-2.28-1.333-4.675-2.004-7.186-2.004h-.706c-3.457.158-6.597 1.455-9.424 3.892-2.827 2.44-4.24 5.78-4.24 10.026h6.83c0-1.257.273-2.396.826-3.42.55-1.022 1.296-1.848 2.238-2.478.155 0 .236-.077.236-.236h.706c0 .16.078.317.237.472.156.16.314.236.472.236v44.588h16.256V81.72c.313-1.57.942-3.066 1.885-4.48.942-1.416 2.04-2.673 3.298-3.776.156-.155.472-.43.943-.826.47-.39 1.02-.745 1.65-1.062.154-.155.27-.273.352-.354.077-.077.195-.118.353-.118.626-.472 1.255-.903 1.885-1.298.626-.39 1.02-.51 1.178-.354.314-.155.59-.236.826-.236h.59c1.096 0 2.08.276 2.944.826.86.553 1.296 1.456 1.296 2.713v27.838c0 3.933 1.373 7.236 4.123 9.908 2.745 2.677 6.007 4.01 9.776 4.01 3.77 0 7.027-1.333 9.777-4.01 2.746-2.67 4.123-5.974 4.123-9.907h-6.832c.002.318-.04.71-.116 1.18zm45.233 3.302c-2.436 1.416-4.987 2.282-7.656 2.595h-.705c-2.043.16-3.652-.508-4.83-2.004-1.178-1.493-2.16-3.185-2.945-5.072-.158-.627-.353-1.257-.59-1.887-.235-.627-.433-1.257-.588-1.887l.707-.236c1.097-.313 2.275-.667 3.534-1.062 1.255-.39 2.51-.826 3.77-1.297 4.395-1.57 8.364-3.812 11.898-6.724 3.534-2.907 5.3-6.723 5.3-11.44V74.17c-.63-4.4-2.63-7.548-6.007-9.436-3.38-1.887-7.108-2.908-11.19-3.067h-.707c-8.17.16-14.806 2.912-19.908 8.257-5.106 5.35-7.738 11.482-7.893 18.4 0 3.304.665 6.57 2.002 9.79 1.333 3.226 3.416 6.175 6.243 8.848 2.356 2.204 4.907 3.933 7.657 5.19 2.746 1.26 5.537 2.046 8.364 2.36.47.158.942.235 1.414.235h1.414c4.082 0 8.088-.903 12.015-2.713 3.923-1.806 7.303-4.442 10.13-7.903l-5.183-4.245c-1.733 2.047-3.813 3.776-6.246 5.19zm-18.494-15.452v-.354c0-1.098.077-2.396.236-3.893.155-1.493.47-3.026.942-4.6.626-2.986 1.727-5.74 3.298-8.257 1.568-2.514 3.61-3.775 6.126-3.775h1.06c.39 0 .744.08 1.06.236 1.568.16 3.063.71 4.476 1.652s2.198 2.36 2.356 4.246v.944c0 2.83-1.178 5.19-3.534 7.077s-5.03 3.383-8.01 4.48c-1.414.63-2.827 1.144-4.24 1.534-1.415.394-2.674.748-3.77 1.062v-.352zm86.58 14.406c-.552 1.146-1.296 2.046-2.238 2.698-.158.16-.276.236-.353.236-.08 0-.2-.077-.353-.236-.317 0-.552-.118-.707-.354-.158-.236-.236-.43-.236-.59V68.508h10.837v-6.842H335.22V22.034h-16.257v39.634H303.886V22.034H287.63v39.634h-6.597v6.842h6.597v32.084c0 4 1.373 7.358 4.123 10.078 2.746 2.72 6.008 4.077 9.777 4.077s7.027-1.358 9.777-4.078c2.746-2.72 4.123-6.078 4.123-10.078h-6.832c0 1.146-.276 2.293-.825 3.435-.552 1.145-1.296 2.045-2.238 2.697-.158.16-.276.236-.353.236-.08 0-.2-.077-.353-.236-.318 0-.553-.118-.708-.354-.158-.236-.236-.43-.236-.59V68.507h15.077v32.084c0 4 1.373 7.36 4.123 10.08 2.746 2.72 6.008 4.076 9.777 4.076 3.77 0 7.027-1.357 9.777-4.077 2.746-2.72 4.123-6.08 4.123-10.08h-6.832c0 1.15-.276 2.297-.824 3.44zm55.716-4.144c-1.73 2.046-3.81 3.775-6.243 5.19-2.438 1.416-4.99 2.282-7.658 2.595h-.707c-2.043.16-3.652-.508-4.83-2.004-1.178-1.493-2.16-3.185-2.945-5.072-.157-.627-.352-1.257-.588-1.887-.236-.627-.434-1.257-.59-1.887l.708-.236c1.097-.313 2.275-.667 3.534-1.062 1.255-.39 2.51-.826 3.77-1.297 4.395-1.57 8.364-3.812 11.898-6.724 3.534-2.907 5.3-6.723 5.3-11.44V74.17c-.628-4.4-2.63-7.548-6.007-9.436-3.38-1.887-7.108-2.908-11.19-3.067h-.706c-8.17.16-14.806 2.912-19.908 8.257-5.106 5.35-7.738 11.482-7.892 18.4 0 3.304.666 6.57 2.003 9.79 1.334 3.226 3.417 6.175 6.244 8.848 2.356 2.204 4.907 3.933 7.657 5.19 2.747 1.26 5.538 2.046 8.365 2.36.47.158.942.235 1.414.235h1.413c4.082 0 8.088-.903 12.015-2.713 3.924-1.806 7.304-4.442 10.13-7.903l-5.186-4.244zm-24.738-10.262v-.354c0-1.098.077-2.396.236-3.893.155-1.493.47-3.026.942-4.6.626-2.986 1.726-5.74 3.298-8.257 1.568-2.514 3.61-3.775 6.126-3.775h1.06c.39 0 .744.08 1.06.236 1.568.16 3.063.71 4.476 1.652 1.414.944 2.198 2.36 2.356 4.246v.944c0 2.83-1.178 5.19-3.534 7.077s-5.03 3.383-8.01 4.48c-1.414.63-2.827 1.144-4.24 1.534-1.415.394-2.674.748-3.77 1.062v-.352z"/><path fill-rule="evenodd" clip-rule="evenodd" fill="#FBA07C" d="M150.123 131.428c-.142.707-.39 1.344-.742 1.91-.353.565-.672 1.132-.953 1.7-1.84 3.536-4.383 6.05-7.633 7.537-3.253 1.486-6.928 2.23-11.026 2.23-3.678 0-7.74-.532-12.192-1.593-4.453-1.062-9.084-2.442-13.888-4.14-6.222-2.266-12.298-4.777-18.235-7.538-5.937-2.76-11.805-5.484-17.6-8.174-.566-.282-1.096-.53-1.59-.743-.496-.212-.953-.458-1.377-.743-3.677-1.7-7.352-3.43-11.026-5.202-3.677-1.768-7.352-3.43-11.026-4.99 2.26-3.68 3.992-7.783 5.195-12.315 1.198-4.53 1.8-9.27 1.8-14.226V29.832c0-.636.07-1.306.213-2.016.563-5.378 2.226-10.298 4.983-14.756s7.17-6.758 13.25-6.9h.212c.563 0 1.166.035 1.802.105.636.073 1.236.18 1.802.318 3.532.85 6.712 2.585 9.542 5.203 2.826 2.62 4.31 5.77 4.453 9.448 0 .426-.036.887-.106 1.38-.072.5-.178 1.03-.317 1.593-.71-1.274-1.557-2.3-2.544-3.08-.992-.775-2.052-1.38-3.182-1.804-.285-.14-.636-.247-1.06-.32-.424-.07-.848-.105-1.272-.105-1.84 0-3.43.53-4.77 1.592-1.346 1.062-2.015 2.515-2.015 4.353 0 .992.177 2.017.53 3.08.352 1.06 1.025 2.16 2.015 3.29.848.992 1.73 1.805 2.65 2.442.92.637 1.873 1.028 2.863 1.168.282.143.6.212.954.212h.954c2.826.143 5.407-1.062 7.74-3.61 2.33-2.547 3.498-5.59 3.498-9.13 0-7.075-2.65-12.56-7.95-16.454C78.77 1.948 72.94 0 66.58 0c-9.19 0-16.433 3.434-21.734 10.298-5.3 6.867-8.66 14.474-10.072 22.825-.285 1.417-.497 2.903-.636 4.46-.142 1.558-.212 3.045-.212 4.458v50.534c0 2.833-.142 5.52-.424 8.068-.285 2.548-.78 4.883-1.484 7.007-3.11-1.132-6.043-2.018-8.8-2.655-2.757-.637-5.337-.955-7.74-.955H14.42c-4.808.143-8.376 1.63-10.71 4.46-2.33 2.832-3.57 5.874-3.71 9.13 0 3.114 1.166 5.944 3.5 8.492 2.33 2.548 5.757 3.822 10.283 3.822 4.804-.143 9.363-1.274 13.676-3.397 4.31-2.123 8.02-5.096 11.13-8.918 3.818 1.84 7.774 3.82 11.875 5.944 4.098 2.123 8.27 4.316 12.51 6.582 2.544 1.413 5.546 3.112 9.012 5.096 3.462 1.98 7.173 4.034 11.132 6.157 3.53 1.698 7.208 3.43 11.025 5.2s7.633 3.362 11.45 4.778c3.817 1.274 7.633 2.336 11.45 3.185 3.817.85 7.49 1.274 11.026 1.274 5.796 0 10.99-1.38 15.586-4.14 4.592-2.76 8.02-7.468 10.284-14.12.424-.99.706-1.698.848-2.122.14-.425.212-.85.212-1.274 0-.142.07-.21.212-.21v-.426l-5.09-2.126zm-126.905-10.51c-2.757 2.054-5.974 3.08-9.648 3.08-2.12 0-3.89-.602-5.3-1.806-1.416-1.2-2.12-2.724-2.12-4.565v-.743c0-.212.07-.458.21-.743 0-.28.034-.53.107-.742.07-.212.176-.458.318-.743.706-1.7 1.872-2.866 3.5-3.503 1.622-.637 3.425-.955 5.406-.955.564 0 1.167.036 1.803.106.636.073 1.236.106 1.802.106 1.272.284 2.508.53 3.71.742 1.2.212 2.297.53 3.288.955.706.143 1.378.318 2.014.53s1.166.392 1.59.532c-1.696 3.114-3.922 5.698-6.68 7.748z"/></symbol><symbol id="icon-menu" viewBox="0 0 24 17"><title>Otevřít menu</title><path fill="currentColor" d="M1.5 0h21c.828 0 1.5.67 1.5 1.5 0 .828-.672 1.5-1.5 1.5h-21C.67 3 0 2.328 0 1.5 0 .67.67 0 1.5 0zM1.5 14h21c.828 0 1.5.672 1.5 1.5s-.672 1.5-1.5 1.5h-21C.67 17 0 16.328 0 15.5S.67 14 1.5 14zM1.5 7h21c.828 0 1.5.672 1.5 1.5s-.672 1.5-1.5 1.5h-21C.67 10 0 9.328 0 8.5S.67 7 1.5 7z"/></symbol></svg>