<?xml version="1.0" encoding="UTF-8"?><!DOCTYPE svg PUBLIC "-//W3C//DTD SVG 1.1//EN" "http://www.w3.org/Graphics/SVG/1.1/DTD/svg11.dtd"><svg xmlns="http://www.w3.org/2000/svg"><symbol id="icon-check_checkmark" viewBox="0 0 16 16"><path fill="currentColor" d="M13.6 2L6 9.7 2.1 5.8 0 7.9 6.1 14 16 4.5z"/></symbol><symbol id="icon-check_close" viewBox="0 0 16 16"><path fill="currentColor" d="M8 0C3.6 0 0 3.6 0 8s3.6 8 8 8 8-3.6 8-8-3.6-8-8-8z"/><path fill="#FFF" d="M11 5.1L7.1 9l-2-2-1 1.1 3.1 3.1 5-4.9z"/></symbol><symbol id="icon-check_open" viewBox="0 0 16 16"><circle fill="#FFF" cx="8" cy="8" r="7"/><path fill="currentColor" d="M8 0C3.6 0 0 3.6 0 8s3.6 8 8 8 8-3.6 8-8-3.6-8-8-8zm0 14.6c-3.6 0-6.6-2.9-6.6-6.6S4.3 1.4 8 1.4c3.6 0 6.5 2.9 6.6 6.6 0 3.6-3 6.6-6.6 6.6z"/></symbol><symbol id="icon-check_open_no_fill" viewBox="0 0 16 16"><path fill="currentColor" d="M8 0C3.6 0 0 3.6 0 8s3.6 8 8 8 8-3.6 8-8-3.6-8-8-8zm0 14.6c-3.6 0-6.6-2.9-6.6-6.6S4.3 1.4 8 1.4c3.6 0 6.5 2.9 6.6 6.6 0 3.6-3 6.6-6.6 6.6z"/></symbol><symbol id="icon-divider" viewBox="0 0 12 4"><title>Divider</title><path fill="currentColor" d="M1 1a1 1 0 1 1 0 2 1 1 0 0 1 0-2zM6 0a2 2 0 1 1 0 4 2 2 0 0 1 0-4zM11 1a1 1 0 1 1 0 2 1 1 0 0 1 0-2z"/></symbol><symbol id="icon-expand" viewBox="0 0 32.044 32.004"><path fill="currentColor" d="M27.898 10.482l-.005-8.305a2.074 2.074 0 1 1 4.146-.001l.004 8.306a2.074 2.074 0 0 1-4.145 0z"/><path fill="currentColor" d="M21.498 0l8.374.023c1.155.004 2.095.928 2.098 2.063.004 1.136-.929 2.053-2.084 2.049l-8.374-.023c-1.155-.004-2.095-.928-2.099-2.063C19.41.914 20.343-.004 21.498 0z"/><path fill="currentColor" d="M31.392.704a1.99 1.99 0 0 1 0 2.828L21.43 13.43a2.023 2.023 0 0 1-2.847 0 1.99 1.99 0 0 1 0-2.828L28.546.703c.786-.78 2.06-.78 2.846.001zM13.411 18.592a2.013 2.013 0 0 1 0 2.841l-9.918 9.943a1.998 1.998 0 0 1-2.833 0 2.012 2.012 0 0 1 0-2.841l9.918-9.943a1.998 1.998 0 0 1 2.833 0z"/><path fill="currentColor" d="M4.171 21.474l-.038 8.353c-.006 1.152-.936 2.091-2.077 2.097A2.05 2.05 0 0 1 0 29.849l.038-8.353c.006-1.152.936-2.091 2.077-2.097a2.049 2.049 0 0 1 2.056 2.075z"/><path fill="currentColor" d="M10.495 31.983l-8.345.021A2.068 2.068 0 0 1 .069 29.94a2.086 2.086 0 0 1 2.088-2.072l8.346-.02a2.068 2.068 0 0 1 2.081 2.064 2.085 2.085 0 0 1-2.089 2.071z"/></symbol><symbol id="icon-facebook" viewBox="0 0 24 24"><title>Facebook</title><path fill="currentColor" d="M3.75 0h16.5A3.75 3.75 0 0 1 24 3.75v16.5A3.75 3.75 0 0 1 20.25 24H3.75A3.75 3.75 0 0 1 0 20.25V3.75A3.75 3.75 0 0 1 3.75 0z"/><path fill="#FFF" d="M10.473 19.125h2.668v-6.491h2.164l.326-2.544h-2.49V8.337s-.03-.432.177-.721c.177-.248.527-.36 1.217-.36h1.215v-2.28s-1.779-.249-2.994.029c-1.215.278-2.283 1.374-2.283 2.778v2.31H8.25v2.544h2.223v6.488z"/></symbol><symbol id="icon-instagram" viewBox="0 0 24 24"><title>Instagram</title><path fill="currentColor" d="M3.75 0h16.5A3.75 3.75 0 0 1 24 3.75v16.5A3.75 3.75 0 0 1 20.25 24H3.75A3.75 3.75 0 0 1 0 20.25V3.75A3.75 3.75 0 0 1 3.75 0z"/><path fill="#FFF" d="M5.25 7.207c0-1.192.358-1.957 2.216-1.957h9.403c1.231 0 1.881.585 1.881 1.89v9.855c0 1.238-.873 1.755-1.746 1.755H6.862c-1.209 0-1.612-1.17-1.612-1.822V7.207z"/><path fill="currentColor" d="M14.451 7.612c0-.607.269-.877.739-.877h1.41c.403 0 .604.338.604.608v1.553c0 .315-.224.54-.537.54h-1.612c-.403 0-.604-.225-.604-.608V7.612zM15.996 10.988h1.209v5.535c0 .698-.201.675-.672.675H7.6c-.672 0-.806-.428-.806-.81v-5.4h1.209s-.532 1.766.403 3.307c.565.932 1.729 1.958 3.694 1.958 1.971 0 4.792-1.733 3.896-5.265z"/><path fill="currentColor" d="M12.033 9.3A2.694 2.694 0 0 1 14.72 12c0 1.491-1.203 2.7-2.687 2.7A2.693 2.693 0 0 1 9.347 12c0-1.491 1.203-2.7 2.686-2.7z"/></symbol><symbol id="icon-loader" viewBox="0 0 32 32"><g fill="currentColor"><path d="M7.7 22.7c-.8 0-1.5.3-2 .8-.6.6-.8 1.2-.8 2s.3 1.5.8 2c.6.6 1.2.8 2 .8s1.5-.3 2-.8c.6-.6.8-1.2.8-2s-.3-1.5-.8-2c-.6-.5-1.2-.8-2-.8zM7 16.6c0-.9-.3-1.6-.9-2.3-.6-.6-1.4-.9-2.3-.9-.9 0-1.6.3-2.3.9-.5.7-.9 1.5-.9 2.3 0 .9.3 1.6.9 2.3.6.6 1.4.9 2.3.9.9 0 1.6-.3 2.3-.9.6-.6.9-1.4.9-2.3zM25.6 9.3c.4 0 .8-.2 1.1-.5.3-.3.5-.7.5-1.1 0-.4-.2-.8-.5-1.1-.3-.3-.7-.5-1.1-.5-.4 0-.8.2-1.1.5-.3.3-.5.6-.5 1.1s.2.8.5 1.1c.3.3.7.5 1.1.5zM7.7 4.2c-1 0-1.8.3-2.5 1s-1 1.5-1 2.5.3 1.8 1 2.5 1.5 1 2.5 1 1.8-.3 2.5-1 1-1.5 1-2.5-.3-1.8-1-2.5-1.5-1-2.5-1zM30.8 15.3c-.4-.4-.8-.6-1.4-.6-.5 0-1 .2-1.4.6-.4.4-.6.8-.6 1.4 0 .5.2 1 .6 1.4.4.4.8.6 1.4.6.5 0 1-.2 1.4-.6.4-.4.6-.8.6-1.4 0-.6-.2-1-.6-1.4zM25.6 23.4c-.6 0-1.1.2-1.6.7-.4.4-.7 1-.7 1.6 0 .6.2 1.1.7 1.6.4.4 1 .7 1.6.7.6 0 1.1-.2 1.6-.7.4-.4.7-1 .7-1.6 0-.6-.2-1.1-.7-1.6-.5-.5-1-.7-1.6-.7zM16.6 26.9c-.7 0-1.3.3-1.8.8s-.7 1.1-.7 1.8.2 1.3.7 1.8c.5.5 1.1.8 1.8.8s1.3-.3 1.8-.8.8-1.1.8-1.8-.3-1.3-.8-1.8-1.1-.8-1.8-.8zM16.6 0c-1.1 0-2 .4-2.7 1.1-.7.7-1.1 1.7-1.1 2.7 0 1.1.4 2 1.1 2.7.7.7 1.7 1.1 2.7 1.1 1.1 0 2-.4 2.7-1.1.7-.7 1.1-1.7 1.1-2.7 0-1.1-.4-2-1.1-2.7C18.6.4 17.7 0 16.6 0z"/></g></symbol><symbol id="icon-logo" viewBox="0 0 400.005 217.292"><title>Linnette logo</title><path fill="#FBA07C" d="M93.382 165.355a9.535 9.535 0 0 1-2.238 2.82c-.158.159-.317.236-.471.236-.317 0-.589-.118-.825-.354a1.127 1.127 0 0 1-.353-.826V124.53H73.474v37.51c0 4 1.333 7.358 4.005 10.078 2.669 2.72 5.89 4.077 9.66 4.077 3.77 0 7.027-1.357 9.777-4.077 2.746-2.72 4.123-6.078 4.123-10.078h-6.832a7.155 7.155 0 0 1-.825 3.315zm66.91-2.134c-.081.472-.276 1.025-.589 1.651-.158.789-.512 1.533-1.06 2.241-.552.708-1.141 1.062-1.767 1.062-.471 0-.747-.077-.825-.236-.081-.155-.118-.391-.118-.708v-29.489c0-2.201-.471-4.206-1.414-6.016a14.344 14.344 0 0 0-3.77-4.6 18.449 18.449 0 0 0-5.301-2.949 17.607 17.607 0 0 0-6.008-1.062 19.57 19.57 0 0 0-4.241.472c-1.414.317-2.75.708-4.005 1.18a21.864 21.864 0 0 0-5.419 2.713 26.14 26.14 0 0 0-4.712 4.129c-1.101-2.986-2.79-5.15-5.065-6.488-2.279-1.334-4.675-2.005-7.186-2.005h-.706c-3.457.159-6.597 1.456-9.424 3.893-2.827 2.44-4.241 5.78-4.241 10.026h6.832c0-1.257.272-2.396.825-3.421a6.812 6.812 0 0 1 2.238-2.477c.155 0 .236-.077.236-.236h.707c0 .159.077.317.236.472.155.159.313.236.471.236v44.588h16.256v-33.028c.313-1.57.942-3.067 1.885-4.482a18.947 18.947 0 0 1 3.298-3.775c.155-.155.471-.431.942-.826a8.695 8.695 0 0 1 1.649-1.062l.353-.354c.077-.077.195-.118.353-.118a26.588 26.588 0 0 1 1.885-1.298c.626-.391 1.02-.509 1.178-.354.313-.155.589-.236.825-.236h.589c1.097 0 2.08.276 2.945.826.861.553 1.296 1.456 1.296 2.713v27.838c0 3.933 1.373 7.236 4.123 9.908 2.746 2.676 6.008 4.01 9.777 4.01 3.77 0 7.027-1.334 9.777-4.01 2.746-2.672 4.123-5.975 4.123-9.908h-6.832a7.32 7.32 0 0 1-.116 1.18zm65.496 0c-.081.472-.276 1.025-.589 1.651-.158.789-.512 1.533-1.06 2.241-.552.708-1.141 1.062-1.767 1.062-.471 0-.747-.077-.825-.236-.081-.155-.118-.391-.118-.708v-29.489c0-2.201-.471-4.206-1.414-6.016a14.344 14.344 0 0 0-3.77-4.6 18.449 18.449 0 0 0-5.301-2.949 17.607 17.607 0 0 0-6.008-1.062 19.57 19.57 0 0 0-4.241.472c-1.414.317-2.75.708-4.005 1.18a21.864 21.864 0 0 0-5.419 2.713 26.14 26.14 0 0 0-4.712 4.129c-1.101-2.986-2.79-5.15-5.065-6.488-2.279-1.334-4.675-2.005-7.186-2.005h-.706c-3.457.159-6.597 1.456-9.424 3.893-2.827 2.44-4.241 5.78-4.241 10.026h6.832c0-1.257.272-2.396.825-3.421a6.812 6.812 0 0 1 2.238-2.477c.155 0 .236-.077.236-.236h.707c0 .159.077.317.236.472.155.159.313.236.471.236v44.588h16.256v-33.028c.313-1.57.942-3.067 1.885-4.482a18.947 18.947 0 0 1 3.298-3.775c.155-.155.471-.431.942-.826a8.695 8.695 0 0 1 1.649-1.062l.353-.354c.077-.077.195-.118.353-.118a26.588 26.588 0 0 1 1.885-1.298c.626-.391 1.02-.509 1.178-.354.313-.155.589-.236.825-.236h.589c1.097 0 2.08.276 2.945.826.861.553 1.296 1.456 1.296 2.713v27.838c0 3.933 1.373 7.236 4.123 9.908 2.746 2.676 6.008 4.01 9.777 4.01 3.77 0 7.027-1.334 9.777-4.01 2.746-2.672 4.123-5.975 4.123-9.908h-6.832a7.32 7.32 0 0 1-.116 1.18zm45.233 3.303c-2.437 1.416-4.988 2.282-7.657 2.595h-.706c-2.043.159-3.652-.509-4.83-2.005-1.178-1.493-2.161-3.185-2.945-5.072a17.719 17.719 0 0 0-.589-1.887 16.667 16.667 0 0 1-.589-1.887l.707-.236c1.097-.313 2.275-.667 3.534-1.062a71.277 71.277 0 0 0 3.77-1.297c4.395-1.57 8.364-3.812 11.898-6.724 3.534-2.908 5.301-6.724 5.301-11.442v-.472-.472-.472-.472c-.63-4.401-2.632-7.549-6.008-9.437-3.379-1.887-7.108-2.908-11.191-3.067h-.706c-8.169.159-14.806 2.912-19.908 8.257-5.106 5.349-7.738 11.482-7.893 18.401 0 3.303.666 6.569 2.003 9.79 1.333 3.225 3.416 6.174 6.243 8.847 2.356 2.204 4.907 3.933 7.657 5.19 2.746 1.261 5.537 2.046 8.364 2.359.471.159.942.236 1.414.236h1.414c4.082 0 8.088-.903 12.015-2.713 3.924-1.806 7.304-4.442 10.131-7.903l-5.183-4.246c-1.733 2.046-3.813 3.775-6.246 5.191zm-18.495-15.453v-.354c0-1.098.077-2.396.236-3.893.155-1.493.471-3.026.942-4.6a25.264 25.264 0 0 1 3.298-8.257c1.568-2.514 3.611-3.775 6.126-3.775h1.06c.39 0 .744.081 1.06.236 1.568.158 3.063.708 4.476 1.651s2.198 2.359 2.356 4.246v.944c0 2.831-1.178 5.19-3.534 7.077s-5.029 3.384-8.01 4.482a30.07 30.07 0 0 1-4.241 1.533c-1.414.394-2.673.748-3.77 1.062l.001-.352zm86.58 14.406c-.552 1.146-1.296 2.046-2.238 2.698-.158.159-.276.236-.353.236-.081 0-.199-.077-.353-.236-.317 0-.552-.118-.707-.354-.158-.236-.236-.431-.236-.59v-9.378-9.378-9.26-9.26h10.838v-6.842h-10.838V83.482h-16.256v39.634H303.886V83.482H287.63v39.634h-6.597v6.842h6.597v32.084c0 4 1.373 7.358 4.123 10.078 2.746 2.72 6.008 4.077 9.777 4.077s7.027-1.357 9.777-4.077c2.746-2.72 4.123-6.078 4.123-10.078h-6.832c0 1.146-.276 2.293-.825 3.435-.552 1.146-1.296 2.046-2.238 2.698-.158.159-.276.236-.353.236-.081 0-.199-.077-.353-.236-.317 0-.552-.118-.707-.354-.158-.236-.236-.431-.236-.59v-9.378-9.378-9.26-9.26h15.077v32.084c0 4 1.373 7.358 4.123 10.078 2.746 2.72 6.008 4.077 9.777 4.077 3.77 0 7.027-1.357 9.777-4.077 2.746-2.72 4.123-6.078 4.123-10.078h-6.832c-.001 1.149-.277 2.295-.825 3.438zm55.716-4.144c-1.73 2.046-3.81 3.775-6.243 5.19-2.437 1.416-4.988 2.282-7.657 2.595h-.706c-2.043.159-3.652-.509-4.83-2.005-1.178-1.493-2.161-3.185-2.945-5.072a17.719 17.719 0 0 0-.589-1.887 16.667 16.667 0 0 1-.589-1.887l.707-.236c1.097-.313 2.275-.667 3.534-1.062a71.59 71.59 0 0 0 3.77-1.297c4.395-1.57 8.364-3.812 11.898-6.724 3.534-2.908 5.301-6.724 5.301-11.442v-.472-.472-.472-.472c-.629-4.401-2.632-7.549-6.008-9.437-3.379-1.887-7.108-2.908-11.191-3.067h-.706c-8.169.159-14.806 2.912-19.908 8.257-5.106 5.349-7.738 11.482-7.892 18.401 0 3.303.666 6.569 2.003 9.79 1.333 3.225 3.416 6.174 6.243 8.847 2.356 2.204 4.907 3.933 7.657 5.19 2.746 1.261 5.537 2.046 8.364 2.359.471.159.942.236 1.414.236h1.414c4.082 0 8.088-.903 12.015-2.713 3.924-1.806 7.304-4.442 10.131-7.903l-5.187-4.245zm-24.738-10.262v-.354c0-1.098.077-2.396.236-3.893.155-1.493.471-3.026.942-4.6.626-2.986 1.726-5.739 3.298-8.257 1.568-2.514 3.611-3.775 6.126-3.775h1.06c.39 0 .744.081 1.06.236 1.568.158 3.063.708 4.476 1.651 1.414.944 2.198 2.359 2.356 4.246v.944c0 2.831-1.178 5.19-3.534 7.077s-5.029 3.384-8.01 4.482a30.07 30.07 0 0 1-4.241 1.533c-1.414.394-2.673.748-3.77 1.062a50.7 50.7 0 0 0 .001-.352z"/><path fill-rule="evenodd" clip-rule="evenodd" fill="#FBA07C" d="M150.123 192.875a5.75 5.75 0 0 1-.742 1.911 19.299 19.299 0 0 0-.954 1.699c-1.839 3.536-4.383 6.051-7.633 7.537-3.253 1.486-6.928 2.229-11.026 2.229-3.678 0-7.739-.531-12.192-1.592-4.453-1.062-9.084-2.442-13.888-4.14a229.261 229.261 0 0 1-18.235-7.538c-5.937-2.76-11.805-5.484-17.599-8.174a31.947 31.947 0 0 0-1.59-.743 8.278 8.278 0 0 1-1.378-.743 736.172 736.172 0 0 1-11.026-5.202 259.372 259.372 0 0 0-11.026-4.99c2.26-3.679 3.992-7.783 5.195-12.315 1.199-4.529 1.802-9.269 1.802-14.226v-26.54-26.753-2.017c0-.637.07-1.307.212-2.017.563-5.378 2.226-10.298 4.983-14.756s7.173-6.758 13.252-6.901h.212c.563 0 1.166.036 1.802.106.636.073 1.236.179 1.802.318 3.532.849 6.712 2.584 9.542 5.202 2.826 2.621 4.31 5.769 4.453 9.448 0 .425-.036.886-.106 1.38a16.95 16.95 0 0 1-.318 1.592c-.709-1.274-1.557-2.299-2.544-3.079a11.995 11.995 0 0 0-3.181-1.805 3.917 3.917 0 0 0-1.06-.318 7.798 7.798 0 0 0-1.272-.106c-1.839 0-3.429.531-4.771 1.592-1.345 1.062-2.014 2.515-2.014 4.353 0 .992.176 2.017.53 3.079.351 1.062 1.024 2.16 2.014 3.291.848.992 1.729 1.805 2.651 2.442.918.637 1.872 1.028 2.862 1.168.282.143.6.212.954.212h.954c2.826.143 5.407-1.062 7.739-3.609s3.499-5.59 3.499-9.13c0-7.076-2.65-12.56-7.951-16.455-5.301-3.891-11.132-5.839-17.493-5.839-9.19 0-16.433 3.434-21.734 10.298-5.301 6.867-8.66 14.474-10.072 22.825a41.208 41.208 0 0 0-.636 4.459 49.231 49.231 0 0 0-.212 4.459v50.533c0 2.833-.142 5.52-.424 8.068-.285 2.548-.779 4.883-1.484 7.007-3.111-1.131-6.043-2.017-8.8-2.654-2.757-.637-5.337-.955-7.739-.955h-1.06c-4.807.143-8.375 1.629-10.708 4.459-2.332 2.833-3.572 5.875-3.711 9.13 0 3.115 1.166 5.945 3.499 8.493 2.332 2.548 5.758 3.822 10.284 3.822a32.83 32.83 0 0 0 13.676-3.397c4.31-2.123 8.021-5.096 11.132-8.918a469.977 469.977 0 0 1 11.874 5.945c4.098 2.123 8.269 4.316 12.51 6.582a821.796 821.796 0 0 1 9.012 5.096 463.504 463.504 0 0 0 11.132 6.157 891.05 891.05 0 0 0 11.026 5.202 157.987 157.987 0 0 0 11.45 4.777 115.059 115.059 0 0 0 11.45 3.185c3.817.849 7.491 1.274 11.026 1.274 5.795 0 10.99-1.38 15.585-4.14 4.592-2.76 8.021-7.468 10.284-14.119.424-.992.706-1.699.848-2.123a4.08 4.08 0 0 0 .212-1.274c0-.143.07-.212.212-.212V195l-5.091-2.125zm-126.905-10.51c-2.757 2.054-5.974 3.079-9.648 3.079-2.12 0-3.89-.601-5.301-1.805-1.415-1.201-2.12-2.724-2.12-4.565v-.743c0-.212.07-.458.212-.743 0-.282.033-.531.106-.743.07-.212.176-.458.318-.743.706-1.699 1.872-2.866 3.499-3.503 1.623-.637 3.426-.955 5.407-.955.563 0 1.166.036 1.802.106.636.073 1.236.106 1.802.106 1.272.285 2.508.531 3.711.743 1.199.212 2.296.531 3.287.955.706.143 1.378.318 2.014.531s1.166.391 1.59.531c-1.696 3.115-3.922 5.699-6.679 7.749z"/><path fill="#FA987D" d="M185.06 196.967h-7.573v18.872h2.345v-7.498h5.227c3.758 0 5.906-2.603 5.906-5.687.001-3.084-2.119-5.687-5.905-5.687zm-.283 9.281h-4.945v-7.187h4.945c2.232 0 3.758 1.471 3.758 3.593s-1.525 3.594-3.758 3.594zm22.671-1.16h-11.02v-8.12h-2.345v18.872h2.345v-8.658h11.02v8.658h2.345v-18.872h-2.345v8.12zm15.354-8.432c-5.566 0-9.353 4.188-9.353 9.761s3.786 9.761 9.353 9.761c5.566 0 9.381-4.188 9.381-9.761s-3.815-9.761-9.381-9.761zm0 17.429c-4.238 0-6.923-3.282-6.923-7.668 0-4.414 2.684-7.668 6.923-7.668 4.21 0 6.951 3.254 6.951 7.668 0 4.386-2.741 7.668-6.951 7.668zm10.975-15.024h5.962v16.779h2.345v-16.779h5.99v-2.094h-14.298v2.094zm25.241-2.405c-5.566 0-9.353 4.188-9.353 9.761s3.786 9.761 9.353 9.761 9.381-4.188 9.381-9.761-3.815-9.761-9.381-9.761zm0 17.429c-4.238 0-6.923-3.282-6.923-7.668 0-4.414 2.684-7.668 6.923-7.668 4.21 0 6.951 3.254 6.951 7.668 0 4.386-2.741 7.668-6.951 7.668zm20.554-5.857h6.499v3.82c-.961.962-2.826 2.037-5.086 2.037-4.125 0-7.262-3.197-7.262-7.668 0-4.527 3.136-7.668 7.262-7.668 2.26 0 4.267 1.075 5.453 2.603l1.865-1.188c-1.639-2.037-3.956-3.508-7.318-3.508-5.369 0-9.692 3.876-9.692 9.761 0 5.857 4.323 9.79 9.692 9.79 3.08 0 5.651-1.302 7.403-3.282v-6.791h-8.816v2.094zm26.148-5.574c0-3.48-2.487-5.687-5.934-5.687h-7.573v18.872h2.345v-7.498h3.786l4.775 7.498h2.769l-5.086-7.696c2.573-.226 4.918-2.093 4.918-5.489zm-11.161 3.622v-7.215h4.945c2.232 0 3.786 1.443 3.786 3.593 0 2.122-1.554 3.622-3.786 3.622h-4.945zm20.523-9.309l-7.601 18.872h2.684l1.667-4.216h9.381l1.667 4.216h2.684l-7.573-18.872h-2.909zm-2.543 12.591l3.984-10.186 4.012 10.186h-7.996zm23.067-12.591h-7.573v18.872h2.345v-7.498h5.227c3.758 0 5.906-2.603 5.906-5.687s-2.119-5.687-5.905-5.687zm-.283 9.281h-4.945v-7.187h4.945c2.232 0 3.758 1.471 3.758 3.593s-1.526 3.594-3.758 3.594zm22.67-1.16h-11.02v-8.12h-2.345v18.872h2.345v-8.658h11.02v8.658h2.345v-18.872h-2.345v8.12zm19.254-8.121l-5.849 8.771-5.849-8.771h-2.741l7.431 10.893v7.979h2.345v-7.979l7.403-10.893h-2.74z"/><path fill="#81F2DF" d="M122.922 67.141c-3.045-.34-6.249-.986-9.283-2.06 2.6 2.252 5.503 4.362 8.604 6.329 8.304-.462 16.593-2.469 22.706-7.492-6.932 2.835-14.574 4.053-22.027 3.223M187.446 47.775c-5.89-5.252-12.581-9.318-19.499-12.999a450.496 450.496 0 0 0-3.345-.468c3.399 2.12 6.614 4.53 9.755 7.09 3.636 2.684 7.07 5.631 10.183 8.843 5.259 4.897 10.046 10.259 12.829 16.99 1.382-.127 2.755-.28 4.122-.451-1.364-7.623-8.584-14.136-14.045-19.005"/><path fill="#81F2DF" d="M176.315 46.093c4.906 3.83 10.021 8.271 14.087 13.337a63.03 63.03 0 0 0-6.702-8.187c-1.908-1.775-3.879-3.49-5.837-5.186a187.982 187.982 0 0 0-4.327-3.645c-4.539-3.344-9.378-6.279-14.268-8.783a224.874 224.874 0 0 0-4.977-.54c7.649 3.806 15.267 7.731 22.024 13.004"/><path fill="#81F2DF" d="M108.651 42.17c-2.017-2.187-4.138-5.251-6.3-7.319-3.338 10.621.729 19.887 8.496 27.645 4.097 2.051 8.859 3.055 13.205 3.442 7.904.705 15.964-.998 23.083-4.435a95.185 95.185 0 0 1-15.616-9.168c20.918 12.834 42.389 16.443 62.56 15.124-4.152-8.415-12.182-15.53-19.574-21.102-7.318-5.515-15.586-9.513-23.765-13.571-8.596-.632-14.312-.198-14.48 2.18 6.152.847 8.149 3.13 13.038 3.424-8.983 1.581-31.416-13.437-44.488-9.176-5.039 1.643 3.421 11.109 3.841 12.956M176.596 80.688c-4.105 2.798-8.358 5.305-12.854 7.392.763.177 1.512.344 2.243.499 4.005-2.185 7.454-4.822 10.611-7.891M203.471 89.917c2.383-.193 4.751-.422 7.073-.714a74.238 74.238 0 0 0 3.854-4.498c2.753-3.505 5.115-7.27 7.419-11.08 1.88-3.109 3.7-6.356 4.35-9.953-.543.167-1.096.319-1.642.481-4.669 10.104-12.114 18.977-21.054 25.764"/><path fill="#81F2DF" d="M161.642 87.577c6.992-3.048 13.367-7.138 19.504-11.77.6-.452 1.348.399.88.957-4.166 4.966-8.647 8.968-14.124 12.211 3.333.647 6.244 1.048 8.529 1.188 7.952.486 16.374.487 24.601-.064 9.185-6.573 16.91-15.378 21.803-25.451-22.712 6.479-47.861 8.445-72.103-1.565-5.396 5.977-12.419 10.504-20.066 13.092 10.299 5.235 21.606 9.072 30.976 11.402"/><path fill="#81F2DF" d="M129.027 75.326c7.761-2.386 14.94-6.831 20.421-12.787-.269-.116-.538-.222-.807-.342-6.092 6.781-15.178 9.608-24.482 10.392 1.582.95 3.211 1.861 4.868 2.737"/><path fill="#4AE5BD" d="M256.676 40.487c-2.9-2.186-6.161-3.754-9.607-4.881-3.8-1.245-7.723-1.949-11.672-2.535-.442.17-.871.357-1.272.578 10.029.771 20.741 5.813 26.09 13.797.778-.396 1.537-.788 2.292-1.181-.665-2.298-4.199-4.546-5.831-5.778M276.838 38.377l2.696-1.552c-2.857-4.451-7.709-7.195-12.927-8.472.568.519 1.101.976 1.624 1.413a32.052 32.052 0 0 1 8.607 8.611"/><path fill="#4AE5BD" d="M253.317 31.993c-.103.061-.201.114-.305.177-.029.599 6.289 3.047 6.521 3.435-.559-.1-12.354-4.465-20.872-3.333 4.04.694 8.022 1.617 11.83 3.205 3.442 1.435 6.466 3.397 9.288 5.811 1.242 1.062 3.208 2.607 3.889 4.368a371.612 371.612 0 0 0 11.324-6.226c-6.248-4.829-13.806-7.718-21.675-7.437M286.092 31.669c.31.682-.762 1.219-1.154.599-2.319-3.661-5.699-5.773-9.523-7.079-2.31.292-4.939.929-7.929 2.033 5.35 1.418 10.283 4.329 13.185 8.946 4.641-2.675 8.017-4.588 9.854-5.145-.972-1.598-3.827-5.323-10.268-5.939 2.462 1.53 4.492 3.623 5.835 6.585M173.285 35.32c6.278 3.52 12.291 7.455 17.649 12.381 5.388 4.955 12.128 11.317 13.477 18.899 21.392-2.893 40.92-10.872 56.234-18.56-1.669-2.439-3.857-4.585-6.388-6.401-12.187-7.284-31.533-8.15-38.686-.784 4.37.559 13.118 2.081 21.298 3.197-5.021 1.745-37.242-4.787-63.584-8.732M218.611 88.23c1.852-2.679 3.453-5.549 4.842-8.503 1.946-4.139 4.465-8.675 4.996-13.348-.835 2.596-2.164 5.031-3.572 7.38-2.226 3.712-4.505 7.406-7.13 10.853a76.422 76.422 0 0 1-3.577 4.323c1.504-.21 2.98-.45 4.441-.705"/><path fill="#4AE5BD" d="M254.051 61.817c.29-.514 1.242-.508 1.252.209.077 5.983-2.235 10.855-5.366 15.451 8.511-7.231 15.755-18.19 14.175-28.835-10.208 5.162-21.843 10.397-34.339 14.4.666 6.05-2.634 11.931-5.124 17.225-1.238 2.631-2.63 5.206-4.223 7.639 7.094-1.343 13.561-3.243 18.874-5.756a35.475 35.475 0 0 0 3.694-3.161c.297-.295.564-.611.846-.916.952-1.222 1.939-2.415 2.915-3.612 2.792-3.968 4.891-8.388 7.296-12.644"/><path fill="#4AE5BD" d="M266.639 61.571c2.448-4.748 5.77-11.663 4.002-17.174a402.704 402.704 0 0 1-6.357 3.338c.66 8.944-2.518 19.256-8.342 26.984 2.702-2.27 5.322-4.933 7.463-7.455 1.202-1.892 2.277-3.839 3.234-5.693"/><path fill="#4AE5BD" d="M278.52 40.085a632.547 632.547 0 0 1-6.707 3.68c1.967 5.646-1.145 12.681-3.619 17.638-1.608 3.222-3.55 6.681-5.895 9.75-.038.076-.08.154-.116.23 1.664-.388 8.546-7.365 9.599-8.505-1.315 3.508-3.544 6.012-2.529 6.831 3.179-1.694 7.279-3.846 10.113-7.275 2.294-7.296 2.47-15.021-.846-22.349M288.113 55.935c.165-.141.294-.275.446-.413 2.825-6.453 2.584-14.48-3.055-19.333-1.254.698-2.545 1.419-3.916 2.185 4.045 5.303 4.631 13.769 3.33 20.322 1.596-1.68 2.888-9.625 2.995-11.899.104 1.616.953 3.258.2 9.138M291.204 41.844c.343.955.623 1.942.823 2.947.406.632.637 1.376.863 2.208-.25-1.768-.85-3.512-1.686-5.155"/><path fill="#4AE5BD" d="M294.24 50.31c5.113-6.833-2.488-11.763-4.708-13.955 4.213 2.355 9.478 7.337 2.549-3.754-1.34.704-2.814 1.508-4.374 2.368 3.976 3.864 7.237 9.735 6.533 15.341M280.427 39.023l-.754.421a29.04 29.04 0 0 1 2.431 8.246c1.013 1.337 1.739 3.719 2.083 6.125.249-5.271-.767-10.916-3.76-14.792M294.313 31.434s12.012-3.587 22.111-13.118 12.994-14.373 12.994-14.373L323.12.001s-4.669 12.104-11.005 18.162c-9.543 9.122-18.671 11.614-18.671 11.614l.869 1.657z"/><path fill="none" d="M101.176 0h228.241v90.52H101.176z"/></symbol><symbol id="icon-logo_mobile" viewBox="0 0 400.005 155.845"><title>Logo</title><path fill="#FBA07C" d="M93.382 103.908a9.535 9.535 0 0 1-2.238 2.82c-.158.159-.317.236-.471.236-.317 0-.589-.118-.825-.354a1.127 1.127 0 0 1-.353-.826v-42.7H73.474v37.51c0 4 1.333 7.358 4.005 10.078 2.669 2.72 5.89 4.077 9.66 4.077 3.77 0 7.027-1.357 9.777-4.077 2.746-2.72 4.123-6.078 4.123-10.078h-6.832a7.154 7.154 0 0 1-.825 3.314zm66.91-2.134c-.081.472-.276 1.025-.589 1.651-.158.789-.512 1.533-1.06 2.241-.552.708-1.141 1.062-1.767 1.062-.471 0-.747-.077-.825-.236-.081-.155-.118-.391-.118-.708V76.295c0-2.201-.471-4.206-1.414-6.016a14.344 14.344 0 0 0-3.77-4.6 18.449 18.449 0 0 0-5.301-2.949 17.607 17.607 0 0 0-6.008-1.062 19.57 19.57 0 0 0-4.241.472c-1.414.317-2.75.708-4.005 1.18a21.864 21.864 0 0 0-5.419 2.713 26.14 26.14 0 0 0-4.712 4.129c-1.101-2.986-2.79-5.15-5.065-6.488-2.279-1.334-4.675-2.005-7.186-2.005h-.706c-3.457.159-6.597 1.456-9.424 3.893-2.827 2.44-4.241 5.78-4.241 10.026h6.832c0-1.257.272-2.396.825-3.421a6.812 6.812 0 0 1 2.238-2.477c.155 0 .236-.077.236-.236h.707c0 .159.077.317.236.472.155.159.313.236.471.236v44.588h16.256V81.721c.313-1.57.942-3.067 1.885-4.482a18.947 18.947 0 0 1 3.298-3.775c.155-.155.471-.431.942-.826a8.695 8.695 0 0 1 1.649-1.062l.353-.354c.077-.077.195-.118.353-.118a26.588 26.588 0 0 1 1.885-1.298c.626-.391 1.02-.509 1.178-.354.313-.155.589-.236.825-.236h.589c1.097 0 2.08.276 2.945.826.861.553 1.296 1.456 1.296 2.713v27.838c0 3.933 1.373 7.236 4.123 9.908 2.746 2.676 6.008 4.01 9.777 4.01 3.77 0 7.027-1.334 9.777-4.01 2.746-2.672 4.123-5.975 4.123-9.908h-6.832a7.32 7.32 0 0 1-.116 1.181zm65.496 0c-.081.472-.276 1.025-.589 1.651-.158.789-.512 1.533-1.06 2.241-.552.708-1.141 1.062-1.767 1.062-.471 0-.747-.077-.825-.236-.081-.155-.118-.391-.118-.708V76.295c0-2.201-.471-4.206-1.414-6.016a14.344 14.344 0 0 0-3.77-4.6 18.449 18.449 0 0 0-5.301-2.949 17.607 17.607 0 0 0-6.008-1.062 19.57 19.57 0 0 0-4.241.472c-1.414.317-2.75.708-4.005 1.18a21.864 21.864 0 0 0-5.419 2.713 26.14 26.14 0 0 0-4.712 4.129c-1.101-2.986-2.79-5.15-5.065-6.488-2.279-1.334-4.675-2.005-7.186-2.005h-.706c-3.457.159-6.597 1.456-9.424 3.893-2.827 2.44-4.241 5.78-4.241 10.026h6.832c0-1.257.272-2.396.825-3.421a6.812 6.812 0 0 1 2.238-2.477c.155 0 .236-.077.236-.236h.707c0 .159.077.317.236.472.155.159.313.236.471.236v44.588h16.256V81.721c.313-1.57.942-3.067 1.885-4.482a18.947 18.947 0 0 1 3.298-3.775c.155-.155.471-.431.942-.826a8.695 8.695 0 0 1 1.649-1.062l.353-.354c.077-.077.195-.118.353-.118a26.588 26.588 0 0 1 1.885-1.298c.626-.391 1.02-.509 1.178-.354.313-.155.589-.236.825-.236h.589c1.097 0 2.08.276 2.945.826.861.553 1.296 1.456 1.296 2.713v27.838c0 3.933 1.373 7.236 4.123 9.908 2.746 2.676 6.008 4.01 9.777 4.01 3.77 0 7.027-1.334 9.777-4.01 2.746-2.672 4.123-5.975 4.123-9.908h-6.832a7.32 7.32 0 0 1-.116 1.181zm45.233 3.302c-2.437 1.416-4.988 2.282-7.657 2.595h-.706c-2.043.159-3.652-.509-4.83-2.005-1.178-1.493-2.161-3.185-2.945-5.072a17.719 17.719 0 0 0-.589-1.887 16.667 16.667 0 0 1-.589-1.887l.707-.236c1.097-.313 2.275-.667 3.534-1.062a71.277 71.277 0 0 0 3.77-1.297c4.395-1.57 8.364-3.812 11.898-6.724 3.534-2.908 5.301-6.724 5.301-11.442v-.472-.472-.472-.472c-.63-4.401-2.632-7.549-6.008-9.437-3.379-1.887-7.108-2.908-11.191-3.067h-.706c-8.169.159-14.806 2.912-19.908 8.257-5.106 5.349-7.738 11.482-7.893 18.401 0 3.303.666 6.569 2.003 9.79 1.333 3.225 3.416 6.174 6.243 8.847 2.356 2.204 4.907 3.933 7.657 5.19 2.746 1.261 5.537 2.046 8.364 2.359.471.159.942.236 1.414.236h1.414c4.082 0 8.088-.903 12.015-2.713 3.924-1.806 7.304-4.442 10.131-7.903l-5.183-4.246c-1.733 2.047-3.813 3.776-6.246 5.191zm-18.495-15.452v-.354c0-1.098.077-2.396.236-3.893.155-1.493.471-3.026.942-4.6a25.264 25.264 0 0 1 3.298-8.257c1.568-2.514 3.611-3.775 6.126-3.775h1.06c.39 0 .744.081 1.06.236 1.568.158 3.063.708 4.476 1.651s2.198 2.359 2.356 4.246v.944c0 2.831-1.178 5.19-3.534 7.077s-5.029 3.384-8.01 4.482a30.07 30.07 0 0 1-4.241 1.533c-1.414.394-2.673.748-3.77 1.062a50.7 50.7 0 0 0 .001-.352zm86.58 14.406c-.552 1.146-1.296 2.046-2.238 2.698-.158.159-.276.236-.353.236-.081 0-.199-.077-.353-.236-.317 0-.552-.118-.707-.354-.158-.236-.236-.431-.236-.59v-9.378-9.378-9.26-9.26h10.838v-6.842h-10.838V22.034h-16.256v39.634H303.886V22.034H287.63v39.634h-6.597v6.842h6.597v32.084c0 4 1.373 7.358 4.123 10.078 2.746 2.72 6.008 4.077 9.777 4.077s7.027-1.357 9.777-4.077c2.746-2.72 4.123-6.078 4.123-10.078h-6.832c0 1.146-.276 2.293-.825 3.435-.552 1.146-1.296 2.046-2.238 2.698-.158.159-.276.236-.353.236-.081 0-.199-.077-.353-.236-.317 0-.552-.118-.707-.354-.158-.236-.236-.431-.236-.59v-9.378-9.378-9.26-9.26h15.077v32.084c0 4 1.373 7.358 4.123 10.078 2.746 2.72 6.008 4.077 9.777 4.077 3.77 0 7.027-1.357 9.777-4.077 2.746-2.72 4.123-6.078 4.123-10.078h-6.832c-.001 1.15-.277 2.296-.825 3.439zm55.716-4.144c-1.73 2.046-3.81 3.775-6.243 5.19-2.437 1.416-4.988 2.282-7.657 2.595h-.706c-2.043.159-3.652-.509-4.83-2.005-1.178-1.493-2.161-3.185-2.945-5.072a17.719 17.719 0 0 0-.589-1.887 16.667 16.667 0 0 1-.589-1.887l.707-.236c1.097-.313 2.275-.667 3.534-1.062a71.59 71.59 0 0 0 3.77-1.297c4.395-1.57 8.364-3.812 11.898-6.724 3.534-2.908 5.301-6.724 5.301-11.442v-.472-.472-.472-.472c-.629-4.401-2.632-7.549-6.008-9.437-3.379-1.887-7.108-2.908-11.191-3.067h-.706c-8.169.159-14.806 2.912-19.908 8.257-5.106 5.349-7.738 11.482-7.892 18.401 0 3.303.666 6.569 2.003 9.79 1.333 3.225 3.416 6.174 6.243 8.847 2.356 2.204 4.907 3.933 7.657 5.19 2.746 1.261 5.537 2.046 8.364 2.359.471.159.942.236 1.414.236h1.414c4.082 0 8.088-.903 12.015-2.713 3.924-1.806 7.304-4.442 10.131-7.903l-5.187-4.245zm-24.738-10.262v-.354c0-1.098.077-2.396.236-3.893.155-1.493.471-3.026.942-4.6.626-2.986 1.726-5.739 3.298-8.257 1.568-2.514 3.611-3.775 6.126-3.775h1.06c.39 0 .744.081 1.06.236 1.568.158 3.063.708 4.476 1.651 1.414.944 2.198 2.359 2.356 4.246v.944c0 2.831-1.178 5.19-3.534 7.077s-5.029 3.384-8.01 4.482a30.07 30.07 0 0 1-4.241 1.533c-1.414.394-2.673.748-3.77 1.062l.001-.352z"/><path fill-rule="evenodd" clip-rule="evenodd" fill="#FBA07C" d="M150.123 131.428a5.75 5.75 0 0 1-.742 1.911 19.299 19.299 0 0 0-.954 1.699c-1.839 3.536-4.383 6.051-7.633 7.537-3.253 1.486-6.928 2.229-11.026 2.229-3.678 0-7.739-.531-12.192-1.592-4.453-1.062-9.084-2.442-13.888-4.14a229.261 229.261 0 0 1-18.235-7.538c-5.937-2.76-11.805-5.484-17.599-8.174a31.947 31.947 0 0 0-1.59-.743 8.278 8.278 0 0 1-1.378-.743 736.172 736.172 0 0 1-11.026-5.202 259.372 259.372 0 0 0-11.026-4.99c2.26-3.679 3.992-7.783 5.195-12.315 1.199-4.529 1.802-9.269 1.802-14.226v-26.54-26.753-2.017c0-.637.07-1.307.212-2.017.563-5.378 2.226-10.298 4.983-14.756s7.171-6.758 13.25-6.901h.212c.563 0 1.166.036 1.802.106.636.073 1.236.179 1.802.318 3.532.849 6.712 2.584 9.542 5.202 2.826 2.621 4.31 5.769 4.453 9.448 0 .425-.036.886-.106 1.38a16.95 16.95 0 0 1-.318 1.592c-.709-1.274-1.557-2.299-2.544-3.079a11.995 11.995 0 0 0-3.181-1.805 3.917 3.917 0 0 0-1.06-.318 7.798 7.798 0 0 0-1.272-.106c-1.839 0-3.429.531-4.771 1.592-1.345 1.062-2.014 2.515-2.014 4.353 0 .992.176 2.017.53 3.079.351 1.062 1.024 2.16 2.014 3.291.848.992 1.729 1.805 2.651 2.442.918.637 1.872 1.028 2.862 1.168.282.143.6.212.954.212h.954c2.826.143 5.407-1.062 7.739-3.609 2.332-2.548 3.499-5.59 3.499-9.13 0-7.076-2.65-12.56-7.951-16.455C78.772 1.947 72.941 0 66.58 0c-9.19 0-16.433 3.434-21.734 10.298-5.301 6.867-8.66 14.474-10.072 22.825a41.208 41.208 0 0 0-.636 4.459 49.231 49.231 0 0 0-.212 4.459v50.533c0 2.833-.142 5.52-.424 8.068-.285 2.548-.779 4.883-1.484 7.007-3.111-1.131-6.043-2.017-8.8-2.654-2.757-.637-5.337-.955-7.739-.955h-1.06c-4.807.143-8.375 1.629-10.708 4.459-2.332 2.833-3.572 5.875-3.711 9.13 0 3.115 1.166 5.945 3.499 8.493 2.332 2.548 5.758 3.822 10.284 3.822a32.83 32.83 0 0 0 13.676-3.397c4.31-2.123 8.021-5.096 11.132-8.918a469.977 469.977 0 0 1 11.874 5.945c4.098 2.123 8.269 4.316 12.51 6.582a821.796 821.796 0 0 1 9.012 5.096 463.504 463.504 0 0 0 11.132 6.157 891.05 891.05 0 0 0 11.026 5.202 157.987 157.987 0 0 0 11.45 4.777 115.059 115.059 0 0 0 11.45 3.185c3.817.849 7.491 1.274 11.026 1.274 5.795 0 10.99-1.38 15.585-4.14 4.592-2.76 8.021-7.468 10.284-14.119.424-.992.706-1.699.848-2.123a4.08 4.08 0 0 0 .212-1.274c0-.143.07-.212.212-.212v-.425l-5.089-2.126zm-126.905-10.51c-2.757 2.054-5.974 3.079-9.648 3.079-2.12 0-3.89-.601-5.301-1.805-1.415-1.201-2.12-2.724-2.12-4.565v-.743c0-.212.07-.458.212-.743 0-.282.033-.531.106-.743.07-.212.176-.458.318-.743.706-1.699 1.872-2.866 3.499-3.503 1.623-.637 3.426-.955 5.407-.955.563 0 1.166.036 1.802.106.636.073 1.236.106 1.802.106 1.272.285 2.508.531 3.711.743 1.199.212 2.296.531 3.287.955.706.143 1.378.318 2.014.531s1.166.391 1.59.531c-1.696 3.115-3.922 5.699-6.679 7.749z"/></symbol><symbol id="icon-menu" viewBox="0 0 24 17"><title>Otevřít menu</title><path fill="currentColor" d="M1.5 0h21a1.5 1.5 0 1 1 0 3h-21a1.5 1.5 0 1 1 0-3zM1.5 14h21a1.5 1.5 0 0 1 0 3h-21a1.5 1.5 0 1 1 0-3zM1.5 7h21a1.5 1.5 0 0 1 0 3h-21a1.5 1.5 0 1 1 0-3z"/></symbol><symbol id="icon-slusna_firma" viewBox="0 0 32 32"><title>Jsme Slušná firma</title><path fill="currentColor" d="M5 0h22c2.8 0 5 2.2 5 5v22c0 2.8-2.2 5-5 5H5c-2.8 0-5-2.2-5-5V5c0-2.8 2.2-5 5-5z"/><g fill="#FFF"><path d="M13.6 14c-.1.2-.3.3-.4.5-1.1 1.9-2.2 3.9-3.3 5.8-.4.7-.9 1-1.4.8-.5-.3-.5-.9-.1-1.6.9-1.7 1.9-3.4 2.8-5 .1-.2.2-.4.3-.5-.1 0-.1-.1-.2-.1-.1.1-.3.2-.3.4l-3.3 6c-.4.7-.9 1-1.4.8-.4-.2-.5-.9-.1-1.6 1.1-2 2.2-3.9 3.3-5.9.1-.2.2-.4.3-.5-.1 0-.1-.1-.2-.1-.1.2-.2.3-.3.5l-2.7 4.8c-.1.1-.1.2-.2.4-.4.6-.9.8-1.3.6-.4-.2-.5-.8-.2-1.4 1.5-2.8 3.1-5.5 4.6-8.3 0-.4.1-.6.2-.7-.1 0-.1-.1-.2-.1-.4.7-.8 1.5-1.2 2.2-.5.9-1.4 1.2-2.3.7v-.2c.8-1.4 1.5-2.9 2.4-4.3.9-1.4 2.4-2 4-2.3 1.5-.3 2.9 0 4.2.8 1.4.8 2.8 1.6 4.1 2.3.2.1.3.2.6.4-.2.1-.3.1-.4.2-1.5.2-2.6 1-3.4 2.3-1.4 2.6-2.9 5.2-4.3 7.7-.1.2-.2.3-.3.5-.3.5-.7.6-1.2.4-.4-.2-.6-.7-.3-1.2.6-1.2 1.3-2.3 1.9-3.5.1-.2.3-.5.4-.7l-.1-.1zM18.4 18c.1-.2.3-.3.4-.5 1.1-1.9 2.2-3.9 3.3-5.8.4-.7.9-1 1.4-.8.5.3.5.9.1 1.6-.9 1.7-1.9 3.4-2.8 5-.1.2-.2.4-.3.5.1 0 .1.1.2.1.1-.2.2-.3.3-.5l3.3-6c.4-.7.9-1 1.4-.8.4.2.5.9.1 1.6-1.1 2-2.2 3.9-3.3 5.9-.1.2-.2.4-.3.5.1 0 .1.1.2.1.1-.2.2-.3.3-.5l2.7-4.8c.1-.1.1-.2.2-.4.4-.6.9-.8 1.3-.6.4.2.5.8.2 1.4-1.5 2.8-3.1 5.5-4.6 8.3-.1.2-.2.4-.2.6.1 0 .1.1.2.1.4-.7.8-1.5 1.2-2.2.5-.9 1.4-1.2 2.3-.7v.2c-.8 1.4-1.5 2.9-2.4 4.3-.9 1.4-2.4 2-4 2.3-1.5.3-2.9 0-4.2-.8-1.4-.8-2.8-1.6-4.1-2.3-.2-.1-.3-.2-.6-.4.2-.1.3-.1.4-.2 1.5-.2 2.6-1 3.4-2.3 1.4-2.6 2.9-5.2 4.3-7.7.1-.2.2-.3.3-.5.3-.5.7-.6 1.2-.4.4.2.6.7.3 1.2-.6 1.2-1.3 2.3-1.9 3.5-.1.2-.3.5-.4.7 0 .2.1.3.1.3z"/></g></symbol></svg>